<svg id="Camada_1" data-name="Camada 1" xmlns="http://www.w3.org/2000/svg" viewBox="0 0 1749.9 330.34"><defs><style>.cls-1{fill:#fdfdfd;}.cls-2{fill:#f26928;}</style></defs><path class="cls-1" d="M1750,250c-18.35,0-36.7,0-55,.05-2.12,0-2.73-.41-2.72-2.65q.12-49.53.06-99.07c0-7.22-.79-14.32-3.84-20.94-5.5-11.93-15.11-18.24-28-19.36-11-1-21.24,1.14-29.52,9.18-6.38,6.18-9.3,14-10.41,22.59a79.41,79.41,0,0,0-.52,10.46c0,32.32,0,64.65.06,97,0,2.24-.44,2.86-2.79,2.85-17.56-.12-35.13-.09-52.69,0-1.72,0-2.36-.24-2.36-2.19q.09-123.18.07-246.37h57.68V86.85a61.78,61.78,0,0,1,20.29-18c15-8.41,31.22-10.66,48.1-8.74C1712.48,62.88,1730,75.37,1741,97c4.63,9.12,6.91,19,8,29.08.09.78-.51,2,1,2.29Z" transform="translate(-0.05 -1.47)"/><path class="cls-1" d="M.05,192.83c1,.5.87-.41,1-.86,4.55-22.53,17-40.16,34-55,.59-.52,1.18-1,1.76-1.56.11-.1.13-.31.22-.53A81.12,81.12,0,0,1,26.85,129C10.86,117.82,6,101.5,13.53,83.53c5.55-13.19,14.88-23.48,25.69-32.59C47.81,43.7,57.51,38.18,67.4,33A183.23,183.23,0,0,0,86.69,21.45c5.49-3.8,10.12-8.31,12.47-14.74.37-1,.71-1.21,1.64-.55,12.85,9.16,25.14,18.93,33.91,32.35a41.48,41.48,0,0,1,6.6,17.17c2.39,17.48-10.9,35.64-28.36,38.6-7.24,1.22-7.29,1.22-7.22-6.09a54.79,54.79,0,0,0-4-22.25,29.64,29.64,0,0,0-8.35-11.55C81.15,44.23,65.15,46,55,58.65,41,76.24,48.71,99.48,71,106.29c5,1.53,10.14,2.52,15.58,3.84-3.43,2.84-6.69,5.5-9.92,8.2-9.31,7.81-18.65,15.58-26.37,25-7,8.62-12.82,17.92-14.16,29.25C34,191.44,40.07,206.8,55.64,218c10.68,7.68,22.93,11.19,35.74,13.08,17.67,2.62,33-3.06,47-13.36.35-.26.68-.55,1.05-.78,4.71-2.94,8.88-6.16,6.58-12.72.34-13.76,6.51-24.16,18.08-31.46A42.61,42.61,0,0,1,175,167.66c.63-.18,1.4-.63,2,0s-.06,1.33-.36,1.85c-4.5,7.72-3.75,15.59-.48,23.39,5.48,13.08,16.07,19.58,29.53,21.81a55.81,55.81,0,0,0,34.13-5.08,24.44,24.44,0,0,0,6.49-4.37c3.16-3.08,3.33-6.36.5-9.74a29,29,0,0,0-7.61-5.92c-11-6.62-22.59-12.06-34.11-17.65-15-7.26-29.52-15.35-44.1-23.37-1-.55-1.89-.83-1-2.44q8.4-15.53,16.49-31.19a5.62,5.62,0,0,1,4.89-3.38,74,74,0,0,0,40.54-19c4.45-4,7.45-9.19,10.2-14.49,11.3,13.83,12.46,36.61-10.63,55.09,4.63,2.65,9.13,5.29,13.68,7.82a156.68,156.68,0,0,1,22.32,14.57c9.07,7.32,13.43,17,13.8,28.48,1,31.82-20.45,58.05-52,63.38-16,2.71-31.67,1.38-46.49-5.78a50.16,50.16,0,0,1-19.27-16.15c-.3-.41-.65-.79-1-1.26a178.13,178.13,0,0,1-33,24.47c-16.14,9.14-33.24,14.5-51.95,13.35-18.1-1.11-34.42-7-48.26-19-9.87-8.57-15.7-19.43-18.08-32.21-.2-1.06-.19-1.06-1.06-1.67Z" transform="translate(-0.05 -1.47)"/><path class="cls-2" d="M753.62,111.5q0-35.58,0-71.18c0-17.93,10.9-32.41,28.13-37.55.64-.19,2.08.34,1.72-1.3h284.75c-.24,1.35.93.92,1.49,1.08a38.51,38.51,0,0,1,25,20.9c2.83,6.35,3.5,13,3.45,19.94-.13,19,0,38.09,0,57.13q0,30.6,0,61.2a2.76,2.76,0,0,1-.11.77c-7,16.8-19.26,27.85-36.62,33.28,0-1.13-.07-2.26-.07-3.4q0-39.43,0-78.87,0-23.85-.11-47.69c0-7.86,0-15.72.17-23.58.06-2.4-.59-3-3-3q-53.36.12-106.7.06c-.87,0-1.73.1-2.6.15q-33.3-.07-66.59-.15c-29.27,0-58.55,0-87.82-.06-2.33,0-2.93.62-2.92,2.92.1,16.6,0,33.2.06,49.8,0,.85-.23,1.76.36,2.53-6.64,6-14.52,9.88-22.7,13.2A49.48,49.48,0,0,1,753.62,111.5Z" transform="translate(-0.05 -1.47)"/><path class="cls-1" d="M370.27,1.47c-.24,1.17.85,1.52,1.42,2.09q18.75,18.88,37.62,37.64c1.69,1.67,1.49,2.4-.08,3.94q-13.47,13.22-26.7,26.67c-1.31,1.33-1.92,1.27-3.17,0-5.86-6-11.82-11.9-17.79-17.79a31.19,31.19,0,0,0-20.24-9.28,19.65,19.65,0,0,0-19.26,10.5A31.49,31.49,0,0,0,318.37,69c-.22,6.72-.21,13.45-.45,20.17-.07,1.84.59,2.17,2.23,2.14,5.6-.09,11.19,0,16.78-.07,2.06,0,2.24.57,1.32,2.17-.57,1-1,2-1.49,3-3.11,6.81-8.2,10.54-15.87,10-2.45-.17-3,.63-3,3,.07,57.49-.1,115,.16,172.47.07,13.85-5.78,23.29-17.81,29.42-2.4,1.22-4.74,2.6-7.07,4-7.1,4.14-13.41,9.13-17.88,16.51V328.9q0-109.57.07-219.14c0-2.85-.84-3.48-3.47-3.33-3.83.22-7.69,0-11.53.09-1.92.06-2.08-.54-1.26-2,.95-1.76,1.81-3.57,2.73-5.35,2.48-4.82,6.31-7.59,11.85-7.67,1.5,0,2.19-.42,2.4-2.15,2.62-21.91,14.38-37.86,32.51-49.7,8.41-5.49,17.19-10.31,26-15.09a114.84,114.84,0,0,0,14.93-9.64A26.05,26.05,0,0,0,358.4,3.74c.27-.69,1.17-1.38.34-2.27Z" transform="translate(-0.05 -1.47)"/><path class="cls-1" d="M779.07,248.57c-17.4.15-33.37-3.91-46.83-16-.39.48-.76,1-1.15,1.41-10.71,12.45-24.76,15.93-40.4,14.73-14.87-1.15-23.61-9.94-28.33-23.47-.31-.89-.63-1.79-1-2.69,0-.06-.14-.09-.34-.21a68,68,0,0,1-8,12.73c-9.07,11.25-21,15-35,13.63-13.13-1.28-23.9-7.19-32.61-17.19-.57.64-1.1,1.19-1.59,1.79-8,9.73-18.48,14.24-30.78,15.12a62.1,62.1,0,0,1-18.24-1.15c-13.38-3-20.75-12-24.55-24.56a65.82,65.82,0,0,1-2.67-19.12q0-28,0-56.1a35.38,35.38,0,0,0-3.2-15.49c-3.43-7.21-9.18-11.71-17.19-11.71s-14,4.36-17.45,11.73a35.64,35.64,0,0,0-3.17,15.49c.05,24.82-.16,49.63.1,74.44.12,11.38-4.19,19.91-13.89,25.76-1.42.86-2.78,1.81-4.23,2.62-9.4,5.24-18.68,10.62-24.71,20.23V243.34a48.91,48.91,0,0,1-15.7,4.81,58.53,58.53,0,0,1-22.1-1c-12.76-3.13-19.9-11.8-23.72-23.8a69,69,0,0,1-2.86-21.18c0-25.08.12-50.15,0-75.23-.08-12.39,5.53-21.09,16.1-27q2.06-1.14,4.13-2.26c8.78-4.81,17.15-10.1,22.52-19.24v2.73q0,58.44,0,116.9a60.19,60.19,0,0,0,1,12.5c1,4.75,3.84,7.75,8.59,8.79a24.22,24.22,0,0,0,9.89.18c1.49-.29,2.42-.82,2.1-2.55a9.13,9.13,0,0,1,0-1.57V54.25c0-11.15,4.69-19.64,14.32-25.35.75-.44,1.51-.87,2.27-1.29,9.91-5.5,20.09-10.66,26.14-21.11v102c.95.39,1.43-.26,2-.58,8.85-5.07,18.06-9.49,26.51-15.25,5.21-3.54,9.87-7.53,12-13.71.34-1,.69-1,1.47-.45,21.38,14.6,37.87,32.47,40.55,59.8,1.8,18.39,1.31,36.81,1.33,55.24,0,4.63-.26,9.28.42,13.87,1.38,9.29,5.35,12.6,14.8,12.54a19.29,19.29,0,0,0,8.57-2c1.78-.88,2.21-1.8,1.49-3.85-8-22.67-5.27-44.16,7.94-64.17,6.71-10.15,16.24-17.5,26.2-24.21,12.25-8.25,25.61-14.49,38.78-21.09a222.59,222.59,0,0,0,29.91-17.69,64.84,64.84,0,0,0,19.49-22v2.72q0,65.4,0,130.8a59.41,59.41,0,0,0,1,12c1.08,5.33,4,8.19,9.38,9.2a22.06,22.06,0,0,0,11.62-.68c1.26-.44,1.67-.93,1.1-2.44-5.82-15.67-.89-31.74,12.73-41.79a45.35,45.35,0,0,1,13.64-7c.68-.21,1.61-.76,2.16.1.43.66-.24,1.32-.58,1.88-6.16,9.82-1.81,24.21,4.42,31.14,0,4,0,8,.11,12,.28,12.1,5.41,21.77,14.71,29.41C771.62,244.92,775.54,246.4,779.07,248.57ZM655.39,120.36c-9.22,5.08-17.95,10.11-25.27,17.26a46.32,46.32,0,0,0-11.73,18.64c-4,12-4.72,24.3-3.53,36.74.77,8,3,15.57,8.28,21.95a14.07,14.07,0,0,0,8.25,5.18c7.92,1.61,16.65-3,20.46-10.81a34.53,34.53,0,0,0,3.5-15.18C655.43,169.69,655.39,145.23,655.39,120.36Z" transform="translate(-0.05 -1.47)"/><path class="cls-1" d="M1307.48,87.14c0-7.67,0-15.34,0-23,0-1.92.29-2.7,2.5-2.69q26.47.15,53,0c2.23,0,2.5.79,2.5,2.7q-.06,91.73,0,183.46c0,2-.46,2.45-2.44,2.44q-26.61-.12-53.21,0c-1.81,0-2.35-.42-2.33-2.28.11-7.77,0-15.54,0-23.26-.69-.4-.84.2-1,.47-11.88,16.4-28.13,25.12-48.09,27.21-20.64,2.17-39.57-2.43-56.23-15s-26.8-29.51-31.77-49.44c-6.77-27.14-6-54.07,5.44-79.95,10.63-24,28.32-40.57,54.29-46.63,22.94-5.35,44.77-2.61,64.09,12.15A70.9,70.9,0,0,1,1307.48,87.14Zm0,68.54a59.3,59.3,0,0,0-1.65-15,40.89,40.89,0,0,0-37.16-31.57A40.33,40.33,0,0,0,1229,134c-5,12.32-5.09,25.05-1.76,37.77,4.46,17,19.33,29.53,35.86,30.46,18.64,1,34.44-8.92,41-25.94A54.48,54.48,0,0,0,1307.45,155.68Z" transform="translate(-0.05 -1.47)"/><path class="cls-1" d="M1061.47,195.77c17.36-5.43,29.61-16.48,36.62-33.28a2.76,2.76,0,0,0,.11-.77c.34-.78.74-1.54,1-2.34,4.2-12,4.87-24.37,4-36.88-.55-7.53-1.79-15-5-22,0-19-.17-38.09,0-57.13,0-6.91-.62-13.59-3.45-19.94A97,97,0,0,1,1121,38.85c22.31,17.95,35.09,41.44,39.53,69.51,3.66,23.14,2.41,46-5.88,68.09-12.69,33.79-37,55.45-71,66.68-1.4.46-2.76,1-4.14,1.55a9.54,9.54,0,0,0-1.79.15c-13.31,3.64-26.92,4.9-40.66,4.93-28.45.07-56.91,0-85.37.09-2.15,0-2.56-.68-2.55-2.66.06-11.69,0-23.38,0-35.07l0-18.24A58.89,58.89,0,0,1,962,187.55c4.91-1.78,9.53-4.05,12.66-8.43a197.88,197.88,0,0,1,14-17.28,19.05,19.05,0,0,0,4.56-9.83c.9-5.4,1.63-10.84,3.48-16a26.63,26.63,0,0,0,.26-17.92,56.66,56.66,0,0,1-2.69-10.89c-.86-6.89-2.41-13.54-7.69-18.69a78,78,0,0,1-10.38-13.12,25.35,25.35,0,0,0-11.94-9.8c-5.25-2.12-10.48-4.32-15.1-7.69q0-9.21,0-18.42c.87,0,1.73-.15,2.6-.15q53.36,0,106.7-.06c2.41,0,3.06.61,3,3-.19,7.86-.13,15.72-.17,23.58a78.52,78.52,0,0,0-19.51-3.58c-10.92-.67-21.84-.16-32.76-.38-1.81,0-2.12.59-2.12,2.23q.06,66.71,0,133.41c0,1.6.24,2.26,2.08,2.24,9.79-.12,19.58.06,29.36-.13A74.43,74.43,0,0,0,1061.47,195.77Z" transform="translate(-0.05 -1.47)"/><path class="cls-1" d="M1409.23,188.13c8.73,0,17.47,0,26.21,0,1.71,0,2.25.41,2.61,2.19,2,9.74,8.58,15.34,17.62,18.2a35.79,35.79,0,0,0,23.9-.54c7.58-2.86,11.22-9.58,9.28-16.54-1.21-4.33-4.33-6.83-8.23-8.54-8.56-3.77-17.58-6.14-26.63-8.38-11.42-2.81-22.86-5.6-33.8-10-13.32-5.33-24.54-13.42-30-27.18-8.2-20.87-3.42-47.4,18.74-63.36,11.07-8,23.6-12.27,37-14,15.82-2,31.57-1.76,47,2.68,28,8.07,46.33,29.9,49.6,58.8.14,1.31-.11,1.65-1.4,1.65q-25.17-.06-50.33,0c-1,0-1.53-.19-1.73-1.32-2.52-14.18-15.14-21.13-30.78-19.9a27.13,27.13,0,0,0-9.61,2.27c-5,2.38-7.9,6.26-8,11.87-.12,5.45,2.66,9.29,7.36,11.73a81.68,81.68,0,0,0,18.47,6.41c14.48,3.53,29,7.1,42.81,12.67,14.38,5.79,26,14.93,31.25,30.06,8,23.45,1.06,47.67-21.24,62.24-11.41,7.46-24.09,11.36-37.52,12.8-17.64,1.89-35.08.84-51.94-5.12-17.46-6.18-32-16.24-41.45-32.6a60.54,60.54,0,0,1-7.76-23.94c-.2-1.79.33-2.16,2-2.14C1391.57,188.17,1400.4,188.13,1409.23,188.13Z" transform="translate(-0.05 -1.47)"/><path class="cls-2" d="M949.09,212.11c0,11.7.11,23.39,0,35.08,0,2,.4,2.67,2.55,2.66,28.46-.08,56.92,0,85.37-.09,13.74,0,27.35-1.29,40.66-4.93a9.54,9.54,0,0,1,1.79-.15c-6.09,4.3-13,5.7-20.3,5.71q-50.46.06-100.92,0a11.43,11.43,0,0,1-1.31,0c-1.76-.2-2.32.28-1.65,2.15q2.64,7.38,5,14.89c.52,1.65,1.35,2.08,3,2.07,13.11-.07,26.22-.19,39.32,0,8,.13,14.1,4,17.34,11.43s2.06,14.41-3.27,20.48a17.73,17.73,0,0,1-13.88,6.23q-76.68-.06-153.34,0a19.07,19.07,0,1,1-.2-38.14q19.4-.15,38.8,0c2.16,0,3.07-.67,3.67-2.65q2.13-7,4.62-13.91c.77-2.12.32-2.61-1.91-2.6-31.71.06-63.43,0-95.14.07-6.83,0-13.59-.21-20.24-1.87-3.53-2.17-7.45-3.65-10.71-6.32-9.3-7.64-14.43-17.31-14.71-29.41-.09-4-.07-8-.11-12q.08-20.51.13-41a11.83,11.83,0,0,1,1.43.57c10.56,5.77,21.4,11,32.19,16.27,1.63.8,3.4,1.35,4.78,2.6,0,10.17,0,20.34-.07,30.51,0,2,.64,2.5,2.54,2.43,4-.13,8,0,12,0,7,.46,14.09.15,21.13.18,3.82,0,7.65.31,11.46-.21Z" transform="translate(-0.05 -1.47)"/><path class="cls-1" d="M792.07,179.22c-1.38-1.25-3.15-1.8-4.78-2.6-10.79-5.3-21.63-10.5-32.19-16.27a11.83,11.83,0,0,0-1.43-.57l-20.28-11.21c-1-.55-1.84-.83-1-2.44q8.58-15.8,16.84-31.76c1-2,2.22-2.94,4.36-2.87a49.48,49.48,0,0,0,15.92-3.83c8.18-3.32,16.06-7.21,22.7-13.2,5.46-4.53,9.17-10.39,12.43-16.62,11.4,14,12.57,36.65-10.34,55.15,1.14.72,2.22,1.44,3.33,2.09,9.82,5.76,19.93,11,29.18,17.73,10.51,7.62,16.57,17.54,17,30.73a67.54,67.54,0,0,1-4.77,28.54c-3.81.52-7.64.22-11.46.21-7,0-14.09.28-21.13-.18a64.12,64.12,0,0,0,8.4-4c8.32-5.16,8.6-10.29.57-15.94C808.17,187,800.18,183,792.07,179.22Z" transform="translate(-0.05 -1.47)"/><path class="cls-2" d="M949.14,193.88c-5.85,3.15-12,3.65-18.51,2.66-4.48-.68-9.07-.27-13.6,0a22.6,22.6,0,0,1-13.77-3.25,98.24,98.24,0,0,0-15.89-7.95,24.44,24.44,0,0,1-11.57-9.46,101.53,101.53,0,0,0-11-14,24.28,24.28,0,0,1-6.54-14.47,71.78,71.78,0,0,0-3.63-15.49,24.22,24.22,0,0,1,.28-16.16,90.86,90.86,0,0,0,3.58-16.3,21,21,0,0,1,5.69-11.55,120.44,120.44,0,0,0,12-14.85,24.61,24.61,0,0,1,12.68-9.26,55.44,55.44,0,0,0,11.4-5.21A28.11,28.11,0,0,1,920,54.21a42.81,42.81,0,0,0,11.75.19,27.37,27.37,0,0,1,17.39,3.45c4.62,3.37,9.85,5.57,15.1,7.69a25.35,25.35,0,0,1,11.94,9.8,78,78,0,0,0,10.38,13.12c5.28,5.15,6.83,11.8,7.69,18.69A56.66,56.66,0,0,0,996.93,118a26.63,26.63,0,0,1-.26,17.92c-1.85,5.21-2.58,10.65-3.48,16a19.05,19.05,0,0,1-4.56,9.83,197.88,197.88,0,0,0-14,17.28c-3.13,4.38-7.75,6.65-12.66,8.43A58.89,58.89,0,0,0,949.14,193.88Zm-85.65-68.53c0,3.5,0,7,0,10.48a34.11,34.11,0,0,0,6.55,19.28c3.4,4.87,7,9.61,10.48,14.39,4.67,6.35,10.94,10.39,18.31,12.95,5.77,2,11.53,4.07,17.45,5.53,4.72,1.17,9.48,1.85,14.48.92,8-1.47,15.45-4.27,23-6.89a35.1,35.1,0,0,0,16.49-11.59c4.1-5.21,8.06-10.53,11.71-16.08a34.65,34.65,0,0,0,6-19.71c0-5.94-.07-11.88,0-17.82a35,35,0,0,0-6-20c-3.68-5.63-7.66-11-11.87-16.3a34.36,34.36,0,0,0-14.34-10.67c-6.66-2.64-13.47-4.82-20.35-6.78a34.93,34.93,0,0,0-20.4.28q-8.75,2.75-17.41,5.7a34.47,34.47,0,0,0-16.63,11.81q-5.57,7.29-10.84,14.78a36.2,36.2,0,0,0-6,13.53C863.11,114.53,863.47,120,863.49,125.35Z" transform="translate(-0.05 -1.47)"/><path class="cls-2" d="M984.27,125.63c-.1,5.67.22,11.37-1.26,16.92-2,7.28-6.88,12.84-11.06,18.83-.65.93-1.39,1.8-2,2.73a38,38,0,0,1-21.58,15.63c-4.19,1.2-8.3,2.68-12.45,4a31.61,31.61,0,0,1-19.82.11q-8.09-2.62-16.15-5.31a33,33,0,0,1-15.61-11c-4.1-5.11-7.93-10.42-11.57-15.85a31.23,31.23,0,0,1-5.34-17.49c-.07-6.81-.22-13.61.2-20.42A29.73,29.73,0,0,1,873,99q5.46-8.17,11.58-15.85a33.54,33.54,0,0,1,15.75-10.83c6.35-2.19,12.65-4.58,19.23-5.94a31.56,31.56,0,0,1,16,.87c5.48,1.74,10.95,3.52,16.4,5.39a33,33,0,0,1,16.13,12c2.7,3.65,5.31,7.36,8.11,10.93a36.79,36.79,0,0,1,8,24.57C984.23,122,984.27,123.8,984.27,125.63Zm-57.21,28.53c-5.6,0-8.91,3-8.17,8a21.1,21.1,0,0,0,8.3,13.7,8.09,8.09,0,0,0,5.46,1.51c3.55-.23,7-.91,8.8-4.54,1.7-3.45-.15-6.2-2.06-8.86-1.31-1.84-2.69-3.64-4.08-5.42C933.16,155.78,930.51,154,927.06,154.16Zm-35.54-27.9a11.77,11.77,0,0,0,7.83-3.18c4.2-3.7,3.76-8.9-1.09-11.72a95.73,95.73,0,0,0-9.07-4.66,10.14,10.14,0,0,0-12,3.16,5.78,5.78,0,0,0-.89,6.13C878.16,120.54,886.6,126.27,891.52,126.26Zm32.89,14.18c3.67,0,6.91-1.09,9-4.29a30.63,30.63,0,0,0,4.62-11,7,7,0,0,0-4.6-8.09A10.09,10.09,0,0,0,922,121.13c-1.65,2.46-3.12,5-4.55,7.62C914,135,917.21,140.41,924.41,140.44ZM976,137.52c-.07-5.41-2.42-9-7.24-10.63a56.9,56.9,0,0,0-8.34-2.11c-6.31-1.08-10.48,3.84-8.68,10a9.73,9.73,0,0,0,5.82,6.61c2.82,1.17,5.66,2.29,8.53,3.29C971.77,146.64,976.06,143.51,976,137.52ZM920.67,75.87c-7.25,0-10.16,4.26-7.85,10.61a42.93,42.93,0,0,0,3,5.78c2.69,4.93,6.75,7,12.39,6.25,6.21-.77,9-6.19,5.56-11.44C932,84.37,930,81.82,928,79.3A8.29,8.29,0,0,0,920.67,75.87Zm38.19,29.32c-5.45.07-9.88,4.48-10,9.43,0,1.39.27,2.89,1.86,3,1.34.08,2-1.19,2.17-2.51,0-.17,0-.35,0-.52.72-4.65,4.64-6.59,8.67-4.3A10.22,10.22,0,0,0,963,111a2.06,2.06,0,0,0,2.57-.7c.79-1,.19-1.82-.55-2.49A10.15,10.15,0,0,0,958.86,105.19ZM899.41,147.3a21.32,21.32,0,0,0-.5-2.7c-1.75-5.94-9.85-8.52-14.57-4.66-.82.67-1.69,1.42-.89,2.63a2.09,2.09,0,0,0,2.76.78,10.69,10.69,0,0,0,1.4-.69c2.15-1.26,4-.63,5.76.82a5.79,5.79,0,0,1,2.23,5.29c-.14,1.28.43,2.41,1.71,2.52s1.8-1.12,2-2.3C899.37,148.56,899.36,148.12,899.41,147.3Zm44.67.48c-1.72,0-2.77,1.85-1.71,3,2.55,2.73,4.94,5.65,8.1,7.74a1.83,1.83,0,0,0,2.58-.39,1.62,1.62,0,0,0,0-2.37c-2.6-2.45-4.79-5.32-7.75-7.37A7.69,7.69,0,0,0,944.08,147.78ZM908,157.17a2.82,2.82,0,0,0-.7.19c-3.42,1.78-6.25,4.38-9.18,6.82a1.49,1.49,0,0,0-.12,2.14,1.79,1.79,0,0,0,2.3.7c3.51-1.64,6.19-4.44,9.18-6.8a1.45,1.45,0,0,0,.24-1.93A2.13,2.13,0,0,0,908,157.17Zm39.28-62.11a4.1,4.1,0,0,0-.72.2c-3.46,1.71-6.25,4.33-9.13,6.81a1.48,1.48,0,0,0-.08,2.13,1.85,1.85,0,0,0,2.53.54c3.27-1.69,5.87-4.28,8.73-6.51a1.55,1.55,0,0,0,.4-2.12A2.07,2.07,0,0,0,947.31,95.06Zm-39,6.92a2.21,2.21,0,0,0-2,1.32c-.43.86.08,1.54.63,2.1,1.64,1.68,3.29,3.36,5,5a23.77,23.77,0,0,0,3.07,2.41c.86.59,1.66.2,2.3-.52a1.53,1.53,0,0,0,.14-2.15c-2.66-2.62-5-5.61-8.1-7.73A4.4,4.4,0,0,0,908.35,102ZM964.1,95.4c-1.8,0-4.25-.29-4.24,2.14,0,2.26,2.39,2,4.11,2h.26c1.74,0,4.12.25,4.13-2C968.37,95.14,965.92,95.39,964.1,95.4ZM966,156.14c-.27-1-.89-1.81-2-1.76a1.74,1.74,0,0,0-1.76,1.88,1.8,1.8,0,0,0,1.87,1.79A2,2,0,0,0,966,156.14Zm-78.4,2c.83-.42,1.78-.9,1.73-2a1.83,1.83,0,0,0-1.89-1.79,1.72,1.72,0,0,0-1.77,1.86C885.68,157.35,886.52,157.84,887.58,158.15Zm58-22.6c-.37-.79-.87-1.65-2-1.54a1.72,1.72,0,0,0-1.72,1.91,1.78,1.78,0,0,0,1.93,1.73C944.8,137.56,945.46,136.8,945.6,135.55Zm2.57-53.47a2.4,2.4,0,0,0-1.86-1.84,1.83,1.83,0,0,0-2,1.69,1.7,1.7,0,0,0,1.7,1.9C947.15,84,947.71,83.14,948.17,82.08Zm27.76,38.51a2,2,0,0,0-1.66-2.08,1.74,1.74,0,0,0-2,1.61,1.7,1.7,0,0,0,1.58,2C975,122.35,975.53,121.5,975.93,120.59Zm-98.35,11.89c.84-.3,1.69-.84,1.67-1.72a1.68,1.68,0,0,0-1.88-1.69,1.64,1.64,0,0,0-1.56,1.74C875.87,131.79,876.68,132.21,877.58,132.48Zm27.7-3.58c-.81.37-1.75.74-1.72,1.89a1.81,1.81,0,0,0,3.6,0C907.25,129.72,906.34,129.24,905.28,128.9Zm12.89,15.15c-.93.26-1.7.82-1.65,1.76a1.67,1.67,0,0,0,1.92,1.66,1.58,1.58,0,0,0,1.46-1.81A1.81,1.81,0,0,0,918.17,144.05Zm10.05-34.62a1.82,1.82,0,0,0,1.71-1.65,1.71,1.71,0,1,0-3.41,0A1.8,1.8,0,0,0,928.22,109.43ZM895.34,90.72a1.89,1.89,0,0,0-1.75,1.6,1.66,1.66,0,1,0,3.31.25C897,91.58,896.2,91.08,895.34,90.72Z" transform="translate(-0.05 -1.47)"/><path class="cls-2" d="M927.17,158.21a4.67,4.67,0,0,1,4.3,2.12c1.92,2.47,3.83,4.95,5.64,7.5,1.6,2.28,1.15,3.75-1.35,5a6.32,6.32,0,0,1-7.64-1.42,25.54,25.54,0,0,1-4.91-7.94C921.89,160.16,923.42,158.21,927.17,158.21Z" transform="translate(-0.05 -1.47)"/><path class="cls-2" d="M885.21,109.61c.36.1.71.16,1,.28a48,48,0,0,1,10.41,5.37c2.23,1.58,2.14,2.76.17,4.66-2.8,2.72-5.92,3.12-9.22,1.07a46.2,46.2,0,0,1-5.36-3.73c-1.29-1.08-3-2.36-2.11-4.36S883.16,110.16,885.21,109.61Z" transform="translate(-0.05 -1.47)"/><path class="cls-2" d="M924.38,136.36c-4.28,0-5.49-2.08-3.36-5.79,1.26-2.18,2.56-4.35,3.86-6.51a6.62,6.62,0,0,1,4.43-3.38,4.23,4.23,0,0,1,4.11,1.06,3.41,3.41,0,0,1,.49,4.12c-1,2.22-1.88,4.49-3,6.64C929.33,135.48,927.67,136.37,924.38,136.36Z" transform="translate(-0.05 -1.47)"/><path class="cls-2" d="M955.38,132.66c0-3,1.91-4.68,4.51-4.13a55.13,55.13,0,0,1,7.77,2.23,6.89,6.89,0,0,1,4.38,7.56c-.24,2-1.37,3.2-3.33,2.76a33.44,33.44,0,0,1-11.31-4.54A4.44,4.44,0,0,1,955.38,132.66Z" transform="translate(-0.05 -1.47)"/><path class="cls-2" d="M926.38,94.9a6.68,6.68,0,0,1-5.65-2.8,41.51,41.51,0,0,1-4-6.67c-.77-1.53-1.38-3.16.11-4.55a4.85,4.85,0,0,1,5.09-1.06,6.71,6.71,0,0,1,3.25,2.5c1.41,1.88,2.85,3.73,4.24,5.62,1,1.37,2.46,2.68,1.6,4.63C930.05,94.69,927.86,94.44,926.38,94.9Z" transform="translate(-0.05 -1.47)"/></svg>