<svg id="Camada_1" data-name="Camada 1" xmlns="http://www.w3.org/2000/svg" viewBox="0 0 962.31 949.15"><defs><style>.cls-1{fill:#fefcfb;}.cls-2{fill:#f36a29;}</style></defs><path class="cls-1" d="M0,450.72c1.9-.4,1.42-2.27,1.43-3.2.14-8,3.85-15,5.74-22.52,4.54-18,10.6-35.47,15.51-53.32A85.86,85.86,0,0,0,25.21,357c.07-.72-.14-1.54.84-1.84-.24,2.67-.35,5.36-.75,8-1.11,7.36-3.66,14.35-5.51,21.53-3.88,15.1-8.9,29.85-13.22,44.82a124.22,124.22,0,0,0-5.18,35.9c.05,5.78-.07,11.56.08,17.33s.47,11.8,2.24,17.32c3.8,11.84,5.9,24.16,10.38,35.82,3.63,9.44,5.05,19.56,8.45,29.12a46.16,46.16,0,0,1,2.95,16c-1.63-.89-.77-2.53-1-3.77-1.46-8.61-4.78-16.71-6.83-25.12-3-12.41-8.05-24.21-10.42-36.81-.87-4.6-3-8.94-4.2-13.5a62,62,0,0,1-1.88-12.29c0-.85.07-1.74-1.13-1.88Z" transform="translate(-0.04 -3.16)"/><path class="cls-1" d="M960.41,468.05c1.1,0,1.21,1.22,2,1.69v29.63l-2,1.12c.44-6,1.2-12,1.12-18C961.47,477.61,960.44,472.88,960.41,468.05Z" transform="translate(-0.04 -3.16)"/><path class="cls-2" d="M960.41,468.05c0,4.83,1.06,9.56,1.12,14.4.08,6.06-.68,12-1.12,18a99.37,99.37,0,0,0-1.73,15.19,1.53,1.53,0,0,0-.32,1.58,1.09,1.09,0,0,0-.23,1.22c-1,3.08-1.92,6.15-2.83,9.25-.62,2.09-1.88,4-1.85,6.28-1.29,2.3-1.49,4.93-2.2,7.4-1.24,4.33-2.35,8.7-3.52,13.06a1.15,1.15,0,0,0-.59,1.37,4.76,4.76,0,0,0-1.09,3.11,31.71,31.71,0,0,0-3.22,12.52c0,.31-.09.61-.13.91a1.18,1.18,0,0,0-.45,1.9c0,.29-.08.59-.11.88a3.38,3.38,0,0,0-1,3,3.22,3.22,0,0,0-.63,2.07c-.39.34-.87.65-.52,1.29a16.37,16.37,0,0,0-1.73,5.92c-2.52,5.17-2.61,10.85-3.38,16.38-.68,4.83-.69,9.72-1.61,14.54-.69,3.58-2.34,7-2.21,10.7,0,.3,0,.6-.07.9-.54.31-1,.65-.48,1.33,0,.31-.05.61-.08.91a1.19,1.19,0,0,0-.52,1.88l-.18,1.27c-.43.21-.69.48-.38,1a2.8,2.8,0,0,0-.11,2.43c-.46.16-.77.4-.43.92-1.15,6.19-2.28,12.37-2.31,18.7-.47.38-.73.81-.37,1.4-.65.53-.51,1.19-.32,1.86-.48.22-.5.55-.25,1a1,1,0,0,0-.36,1.27,4.41,4.41,0,0,0-.68.83c-3.55,8-5.3,16.69-8.74,24.76a4.27,4.27,0,0,0-1.51,2.77A2.2,2.2,0,0,0,913,694.5a5.11,5.11,0,0,0-1.55,2.89,2,2,0,0,0-1.23,2.14l-.45.66c-.55.13-.92.37-.67,1l-.43.71c-.54.1-1,.3-.67,1l-.45.71c-.55.09-.93.31-.7,1l-.43.68c-.55.11-.92.35-.77,1a4.21,4.21,0,0,0-1.51,2.21,1,1,0,0,0-.79,1.14l-.35.48a.91.91,0,0,0-.79,1.2,1.42,1.42,0,0,0-.88,1.06,1.16,1.16,0,0,0-.81,1.24l-5.79,7.12c-.87,0-.93.55-.86,1.21a3.29,3.29,0,0,0-1.46,1.7.77.77,0,0,0-.73,1.09l-1,1.16a3.6,3.6,0,0,0-2.43,2.76,1.58,1.58,0,0,0-.92,1.15c-1,.41-1.87.93-1.83,2.2a5.34,5.34,0,0,0-2.08,2.31c-1.57.92-3,2-3.52,3.85a58.27,58.27,0,0,0-7.1,7.38c-1.36.72-2.66,1.49-2.88,3.24a11.32,11.32,0,0,0-3.27,3.48c-.73,0-1.14.6-1.56,1.08-6.95,7.81-14.22,15.37-20.39,23.84-2.7,3.72-6.08,7-7.93,11.3l-.39.48c-3.82,3.71-6.52,8.28-9.52,12.6-9.49,13.66-19.19,27.17-30.26,39.62-14.92,16.79-33.14,28.93-53.73,37.58-13,5.47-26.14,10.75-39.37,15.7-20.13,7.54-38.84,17.93-57.65,28.12-17.79,9.64-35.25,19.66-55.44,24.23-13,2.94-25.7,5.56-39,4.88a107.39,107.39,0,0,1-11.65-.91c-8.12-1.31-16.25-2.49-24.44-3.33-3.87-.39-7.72-.92-11.6-1.27a119.93,119.93,0,0,0-18.08-.17A87.36,87.36,0,0,0,470,946a7.52,7.52,0,0,0-3-.27c-13.68-.63-27.27,1.5-40.93,1.24a3.94,3.94,0,0,0-.84,0,79.74,79.74,0,0,1-24.62.38c-3.5-.45-7-.56-10.5-.83-3.95-.3-7.78-2-11.83-1.11l-1.23-.15a8.44,8.44,0,0,0-5.48-1l-1.25-.13c-.22-.46-.65-.59-1.1-.76-14.87-5.74-29.41-12.17-43.08-20.44-5.25-3.18-10.48-6.39-15.77-9.52q-18.77-11.1-38.49-20.39c-7.64-3.62-15.32-7.23-23.18-10.33-14.13-5.57-28.17-11.36-41.57-18.45-21.51-11.38-39-27.51-53.2-47.18-8.16-11.3-15.8-23-23.76-34.42-2-2.86-3.58-6.08-6.44-8.28l-.38-.49a15.63,15.63,0,0,0-4.64-6.26l-.9-1a1,1,0,0,0-.8-1.17l-.34-.51a12,12,0,0,0-3.58-4.49c-.11-.18-.22-.36-.32-.54-4-6.26-9.14-11.65-14-17.25q-8.19-9.51-16.93-18.54c-3.42-3.52-6.17-7.69-10.19-10.63a1.64,1.64,0,0,0-1-1.1,2.4,2.4,0,0,0-1.77-2.26l-.47-.54c.16-1-.38-1.43-1.2-1.7a1.77,1.77,0,0,0-1-1.1c.15-1-.37-1.45-1.22-1.71L64,704c-1-2.62-2.82-4.75-4.41-7a169.26,169.26,0,0,1-16.69-30.85,20.78,20.78,0,0,1-1.22-4.28,113.43,113.43,0,0,0-4.87-17.42,37.72,37.72,0,0,1-2.32-9.15c-.95-10-1.67-20.1-3.62-30-.86-4.4-1.57-8.92-3.81-13a1.13,1.13,0,0,0-.13-1.32c.25-.47,0-.75-.39-.95a2.09,2.09,0,0,0-.1-1.84,1.42,1.42,0,0,0-.49-2,1.36,1.36,0,0,0-.06-1.31c.3-.95.59-1.9-.39-2.66V581a46.16,46.16,0,0,0-2.95-16c-3.4-9.56-4.82-19.68-8.45-29.12-4.48-11.66-6.58-24-10.38-35.82-1.77-5.52-2.1-11.47-2.24-17.32s0-11.55-.08-17.33a124.22,124.22,0,0,1,5.18-35.9c4.32-15,9.34-29.72,13.22-44.82,1.85-7.18,4.4-14.17,5.51-21.53.4-2.64.51-5.33.75-8l-.12-1.87a1.55,1.55,0,0,0,.51-2c0-.42.07-.85.1-1.28,1.1-1.06,1-2.58,1.33-3.88a133.06,133.06,0,0,0,4.87-25.27c.57-6.35,1.41-12.68,2.3-19,.64-4.53,3.13-8.55,4.06-13A103.71,103.71,0,0,1,50.44,259c7.38-13.11,16.79-24.74,26.73-35.93,8-9,16.43-17.49,24.43-26.42,3.13-3.49,6.83-6.58,8.89-10.95l.92-1c.93-.2,1.29-1,1.78-1.68,6.73-8.79,13.57-17.48,20.08-26.42,2.7-3.72,5.68-7.34,7.45-11.68l.35-.47a.94.94,0,0,0,.75-1.21l.36-.47a1,1,0,0,0,.76-1.21l.37-.46a1.64,1.64,0,0,0,1.25-1.78l.4-.52a.91.91,0,0,0,.81-1.15l.33-.48c.79-.33,1.42-.77,1.33-1.76l.33-.52a4.82,4.82,0,0,0,1.11-.79c4.58-5.61,9.1-11.27,13.69-16.88a132.87,132.87,0,0,1,19.52-19.44c14.87-12,31.93-20.06,49.51-27,13.82-5.49,27.86-10.37,41.52-16.3,13.87-6,27-13.43,40.23-20.61,15.54-8.44,31-17,47.69-23a102.45,102.45,0,0,1,35-6.61c10.41,0,20.81-.24,31.21,1,7.09.82,14.3-.19,21.45.7,8.09,1,16.21,1.68,24.32,2.51A130.08,130.08,0,0,0,503.89,8c11.05-1.5,22.17-1.56,33.24-2.54,8.23-.73,16.58-.22,24.87-.12a70.33,70.33,0,0,1,10.2,1.08c4.7.77,9.16,2.37,13.7,3.68,5.88,1.7,12.06,2.28,17.7,4.88,10.32,4.75,20.55,9.68,30.42,15.31,11.48,6.54,22.74,13.48,34.32,19.85,12.56,6.9,25.53,13,38.73,18.61,10.77,4.6,21.68,8.89,32.3,13.88,9.87,4.63,19.84,9,28.8,15.27.52.37,1,.89,1.73.77l.55.4c.11.64.68.83,1.13,1.14a138.69,138.69,0,0,1,29.66,28.19c1.91,2.42,3.36,5.34,6.12,7.07l.38.5a18.82,18.82,0,0,0,4.65,6.22l.41.49a.92.92,0,0,0,.72,1.17l.91,1.06c-.06,1,.67,1.71,1.22,2.43,6.47,8.5,11.86,17.73,18,26.48a399.91,399.91,0,0,0,40.26,48.57c.69.72,1.25,1.64,2.31,1.94a1.7,1.7,0,0,0,1,1.1c.21,1.76,1.56,2.55,2.88,3.37a5.15,5.15,0,0,0,2.14,2.22c.08,1.51,1.15,2.22,2.32,2.84l.42.51c.2,1.81,1.65,2.54,2.93,3.42a1.62,1.62,0,0,0,1,1.06c-.07,1.29.84,1.83,1.82,2.31l.42.48c-.13,1,.42,1.47,1.26,1.75.14.17.29.33.43.49a2.64,2.64,0,0,0,1.8,2.33l.41.46a12.35,12.35,0,0,0,4.05,5.16l.39.44c.42,1.85,1.74,3,3.09,4.2l0,.17.17,0c.09,1.09.87,1.8,1.42,2.65,6,9.39,12.25,18.7,15.28,29.6,2.45,8.8,6.68,17.09,7.46,26.35a1.28,1.28,0,0,0,.08,1.31c0,.9-.19,1.84.45,2.63a2,2,0,0,0,.13,1.84,1.34,1.34,0,0,0,.41,1.53c-.18,4.65.81,9.13,1.94,13.59-.42.52-.15,1,0,1.57,1,3.64,1.91,7.31,2.94,10.95,1.22,4.27,1.07,8.72,1.78,13.06A1.08,1.08,0,0,0,935,363a7,7,0,0,0,.2,4.33,1.06,1.06,0,0,0,.37,1.26,31.59,31.59,0,0,0,2.66,13,3.36,3.36,0,0,0,.58,2.08c-.36.65.14,1,.52,1.33-.09,2,1,3.63,1.73,5.38a3.06,3.06,0,0,0,.81,2.69c.11.41.21.82.32,1.23a53.89,53.89,0,0,0,5,18.63q1.73,5.5,3.43,11c-.37.64.11,1,.49,1.31l.09,1.48c-.52.69.11.91.49,1.23a9.57,9.57,0,0,0,1.21,4.93c1,5.18,3.09,10,4.69,15a2.25,2.25,0,0,0,.33,2.36.69.69,0,0,0,.21,1,2.11,2.11,0,0,0,.44,2.36c-.24.54-.38,1.07.14,1.54A61.48,61.48,0,0,0,960.41,468.05ZM67.24,479.5c0,20.5-.32,41,.4,61.48.57,16.19.51,32.42,5.8,48,2.31,6.8,2.72,14.1,5.17,20.86C85.51,629,94,647.31,105.08,664.3c22.07,33.88,46.26,66.27,70.79,98.4,14.24,18.64,29.54,36.24,48.17,50.72a229.41,229.41,0,0,0,37.42,23.87c14.4,7.28,29.51,12.88,44.65,18.46,12.68,4.68,25.5,8.91,38.35,13.07,12.48,4,24.91,8.27,37.51,12,6.6,1.94,13,4.53,19.84,5.71s13,4.45,19.78,6c9.55,2.16,19.37,2.64,28.93,4.81a129.46,129.46,0,0,0,45.26,2.41c12.39-1.59,24.47-5,37-6,8.35-.7,15.86-4.91,23.95-6.48,12.62-2.44,24.49-7.19,36.63-11,12.87-4.06,25.66-8.43,38.48-12.66,20.29-6.68,40.32-13.93,59.76-22.79a222.26,222.26,0,0,0,60-40.38C769,784,783.14,764.91,797.48,746c12.32-16.25,24.07-32.94,36-49.47,14.88-20.56,28.69-41.75,39.57-64.77,8.26-17.5,12.36-36.23,17-54.83a33.29,33.29,0,0,0,.66-3.85c2.32-16.93,2.3-34,2.5-51,.38-33.17.6-66.34-.27-99.51-.56-21.05-1.3-41.88-7.28-62.46-3.38-11.64-6.78-23.23-11.51-34.33-8.61-20.22-20.36-38.74-33-56.65q-26.66-37.79-54.62-74.62a330.75,330.75,0,0,0-36-40.79,210.13,210.13,0,0,0-52.31-36.45c-12.32-6-25-11.14-37.83-16-13.52-5.09-27.19-9.7-40.94-14.06-11.63-3.68-23.14-7.74-34.81-11.33C568,70.78,551.42,65.77,534.48,61.65a234.68,234.68,0,0,0-66.8-6.6c-13,.6-25.62,3.3-38.33,5.9C414.24,64,399.51,68.42,384.89,73c-12.68,4-25.38,8-38,12.3-14,4.72-28.11,9.26-42.05,14.26a397.28,397.28,0,0,0-43.32,18C231,132.77,206,154.63,184.64,180.84c-13.89,17-26.68,34.93-39.65,52.68-16.7,22.86-33.85,45.43-47.67,70.23-9.67,17.37-18.17,35.27-22,55a55.86,55.86,0,0,1-1.7,6.77,103.58,103.58,0,0,0-5.16,27.64c-.59,12.18-1,24.38-1.14,36.57C67.1,446.33,67.24,462.92,67.24,479.5Z" transform="translate(-0.04 -3.16)"/><path class="cls-1" d="M485.68,946a119.93,119.93,0,0,1,18.08.17c3.88.35,7.73.88,11.6,1.27,8.19.84,16.32,2,24.44,3.33a107.39,107.39,0,0,0,11.65.91c13.33.68,26.06-1.94,39-4.88,20.19-4.57,37.65-14.59,55.44-24.23,18.81-10.19,37.52-20.58,57.65-28.12,13.23-4.95,26.35-10.23,39.37-15.7,20.59-8.65,38.81-20.79,53.73-37.58,11.07-12.45,20.77-26,30.26-39.62,3-4.32,5.7-8.89,9.52-12.6-1.15,3.21-3.59,5.57-5.49,8.27-6.61,9.42-13.18,18.85-20.11,28-7.63,10.12-15.74,19.85-25.28,28.16a135.88,135.88,0,0,1-34.15,22.19c-13.77,6.13-27.8,11.53-41.75,17.17-11.63,4.69-23.41,9.11-34.51,15-12.08,6.4-23.84,13.38-35.95,19.7-7.9,4.12-15.56,8.79-24,11.85-3,1.1-5.87,2.76-8.87,4-6.81,2.8-14.2,3.47-21.21,5.59-3.71,1.13-7.54,1.87-11.31,2.85-3.39.89-6.84.5-10.27.54-4.85.06-9.7,0-14.55,0-6.71,0-13.22-1.56-19.83-2.37-6-.73-11.94-1.33-17.9-2.13a162.9,162.9,0,0,0-24.19-1.1C486.48,946.69,486,946.6,485.68,946Z" transform="translate(-0.04 -3.16)"/><path class="cls-1" d="M123.71,774.4c2.86,2.2,4.44,5.42,6.44,8.28,8,11.44,15.6,23.12,23.76,34.42,14.18,19.67,31.69,35.8,53.2,47.18,13.4,7.09,27.44,12.88,41.57,18.45,7.86,3.1,15.54,6.71,23.18,10.33q19.71,9.32,38.49,20.39c5.29,3.13,10.52,6.34,15.77,9.52,13.67,8.27,28.21,14.7,43.08,20.44.45.17.88.3,1.1.76-4-.41-7.42-2.69-11.16-4-8.55-3-16.51-7.2-24.5-11.38-8.57-4.48-16.72-9.68-25-14.62a475.33,475.33,0,0,0-48-24.82c-10.43-4.69-21.06-8.88-31.54-13.45-7.5-3.28-14.88-6.81-22.26-10.32a124.83,124.83,0,0,1-23.15-14.91,135.51,135.51,0,0,1-14.57-12.91A205.47,205.47,0,0,1,148,810.25c-7.82-11.62-15.92-23-23.88-34.56A5.29,5.29,0,0,1,123.71,774.4Z" transform="translate(-0.04 -3.16)"/><path class="cls-1" d="M27.05,592.38c2.24,4,2.95,8.55,3.81,13,2,9.89,2.67,20,3.62,30a37.72,37.72,0,0,0,2.32,9.15,113.43,113.43,0,0,1,4.87,17.42,20.78,20.78,0,0,0,1.22,4.28A169.26,169.26,0,0,0,59.58,697c1.59,2.25,3.4,4.38,4.41,7-2.2-.9-2.73-3.22-3.92-4.9a166.14,166.14,0,0,1-17.59-31.54c-1.91-4.5-2.19-9.35-3.48-14-1.5-5.37-4.28-10.32-5-15.9-.58-4.39-1.22-8.79-1.46-13.2a121.67,121.67,0,0,0-3.09-21.08C28.59,599.75,27.85,596.06,27.05,592.38Z" transform="translate(-0.04 -3.16)"/><path class="cls-1" d="M378.26,945.42c4.05-.9,7.88.81,11.83,1.11,3.48.27,7,.38,10.5.83a79.74,79.74,0,0,0,24.62-.38,3.94,3.94,0,0,1,.84,0c13.66.26,27.25-1.87,40.93-1.24a7.52,7.52,0,0,1,3,.27c-.58,1.11-1.64.67-2.5.68-5.39,0-10.83-.37-16.18.1-10.53.94-21.13.61-31.62,1.7-7.27.76-14.38,0-21.58-.5-6-.42-12-1-17.92-1.83C379.49,946,378.66,946.33,378.26,945.42Z" transform="translate(-0.04 -3.16)"/><path class="cls-1" d="M71.66,713.51c4,2.94,6.77,7.11,10.19,10.63q8.75,9,16.93,18.54c4.83,5.6,9.94,11,14,17.25-3.1-1.64-4.28-5-6.6-7.37-3.36-3.43-6.21-7.34-9.45-10.9-6.86-7.54-13.92-14.9-20.69-22.52C74.46,717.39,72.39,715.93,71.66,713.51Z" transform="translate(-0.04 -3.16)"/><path class="cls-1" d="M836.84,788.45c1.85-4.32,5.23-7.58,7.93-11.3,6.17-8.47,13.44-16,20.39-23.84.42-.48.83-1,1.56-1.08a5.3,5.3,0,0,1-1.43,2.66,272.15,272.15,0,0,0-27.52,33C837.57,788.16,837.15,788.27,836.84,788.45Z" transform="translate(-0.04 -3.16)"/><path class="cls-1" d="M931,629.09c-.13-3.74,1.52-7.12,2.21-10.7.92-4.82.93-9.71,1.61-14.54.77-5.53.86-11.21,3.38-16.38-.69,4.18-1.8,8.29-2.2,12.53-.48,5.15-1,10.31-1.67,15.43A54.24,54.24,0,0,1,931,629.09Z" transform="translate(-0.04 -3.16)"/><path class="cls-1" d="M915.74,689.47c3.44-8.07,5.19-16.73,8.74-24.76a4.41,4.41,0,0,1,.68-.83c-.09,2.65-1.55,4.83-2.49,7.18-1.89,4.71-2.48,9.83-4.58,14.46C917.45,686.91,917.1,688.5,915.74,689.47Z" transform="translate(-0.04 -3.16)"/><path class="cls-1" d="M953.45,534c0-2.28,1.23-4.19,1.85-6.28.91-3.1,1.88-6.17,2.83-9.25.18,4.62-2,8.64-3.4,12.84A22.81,22.81,0,0,1,953.45,534Z" transform="translate(-0.04 -3.16)"/><path class="cls-1" d="M942.83,571.47A31.71,31.71,0,0,1,946.05,559,87.46,87.46,0,0,1,942.83,571.47Z" transform="translate(-0.04 -3.16)"/><path class="cls-1" d="M118.69,767.65a15.63,15.63,0,0,1,4.64,6.26A16.68,16.68,0,0,1,118.69,767.65Z" transform="translate(-0.04 -3.16)"/><path class="cls-1" d="M113.07,760.47a12,12,0,0,1,3.58,4.49C114.76,764,113.85,762.29,113.07,760.47Z" transform="translate(-0.04 -3.16)"/><path class="cls-1" d="M371.55,944.3a8.44,8.44,0,0,1,5.48,1A8.11,8.11,0,0,1,371.55,944.3Z" transform="translate(-0.04 -3.16)"/><path class="cls-1" d="M880,738.13c.51-1.89,1.95-2.93,3.52-3.85C882.92,736.11,881.5,737.17,880,738.13Z" transform="translate(-0.04 -3.16)"/><path class="cls-1" d="M870,748.75c.22-1.75,1.52-2.52,2.88-3.24A5.84,5.84,0,0,1,870,748.75Z" transform="translate(-0.04 -3.16)"/><path class="cls-1" d="M888.32,728.62a3.6,3.6,0,0,1,2.43-2.76A3.67,3.67,0,0,1,888.32,728.62Z" transform="translate(-0.04 -3.16)"/><path class="cls-1" d="M68.86,710.15a2.4,2.4,0,0,1,1.77,2.26A2.52,2.52,0,0,1,68.86,710.15Z" transform="translate(-0.04 -3.16)"/><path class="cls-1" d="M25.49,582.25c1,.76.69,1.71.39,2.66C24.8,584.16,25.17,583.2,25.49,582.25Z" transform="translate(-0.04 -3.16)"/><path class="cls-1" d="M885.57,732c0-1.27.82-1.79,1.83-2.2A2.51,2.51,0,0,1,885.57,732Z" transform="translate(-0.04 -3.16)"/><path class="cls-1" d="M941.1,578.19a3.38,3.38,0,0,1,1-3A4.41,4.41,0,0,1,941.1,578.19Z" transform="translate(-0.04 -3.16)"/><path class="cls-1" d="M913,694.5a2.2,2.2,0,0,1,1.21-2.26A2.58,2.58,0,0,1,913,694.5Z" transform="translate(-0.04 -3.16)"/><path class="cls-1" d="M910.24,699.53a2,2,0,0,1,1.23-2.14A2.79,2.79,0,0,1,910.24,699.53Z" transform="translate(-0.04 -3.16)"/><path class="cls-1" d="M25.94,586.22a1.42,1.42,0,0,1,.49,2C25.49,587.77,25.74,587,25.94,586.22Z" transform="translate(-0.04 -3.16)"/><path class="cls-1" d="M65,705.1c.85.26,1.37.75,1.22,1.71A1.59,1.59,0,0,1,65,705.1Z" transform="translate(-0.04 -3.16)"/><path class="cls-1" d="M67.19,707.91c.82.27,1.36.74,1.2,1.7A1.61,1.61,0,0,1,67.19,707.91Z" transform="translate(-0.04 -3.16)"/><path class="cls-1" d="M942.25,574.28a1.18,1.18,0,0,1,.45-1.9C942.74,573.06,942.93,573.77,942.25,574.28Z" transform="translate(-0.04 -3.16)"/><path class="cls-1" d="M958.36,517.26a1.53,1.53,0,0,1,.32-1.58C959.16,516.33,959.16,516.88,958.36,517.26Z" transform="translate(-0.04 -3.16)"/><path class="cls-1" d="M929.87,634.11a1.19,1.19,0,0,1,.52-1.88C930.42,632.91,930.69,633.66,929.87,634.11Z" transform="translate(-0.04 -3.16)"/><path class="cls-1" d="M893.89,721.91c-.07-.66,0-1.22.86-1.21C894.62,721.21,894.63,721.82,893.89,721.91Z" transform="translate(-0.04 -3.16)"/><path class="cls-1" d="M909.12,701.21c-.25-.65.12-.89.67-1C909.76,700.66,909.63,701.06,909.12,701.21Z" transform="translate(-0.04 -3.16)"/><path class="cls-1" d="M908,702.89c-.28-.67.13-.87.67-1A1,1,0,0,1,908,702.89Z" transform="translate(-0.04 -3.16)"/><path class="cls-1" d="M906.87,704.57c-.23-.66.15-.88.7-1A1,1,0,0,1,906.87,704.57Z" transform="translate(-0.04 -3.16)"/><path class="cls-1" d="M905.67,706.25c-.15-.65.22-.89.77-1C906.39,705.75,906.21,706.14,905.67,706.25Z" transform="translate(-0.04 -3.16)"/><path class="cls-1" d="M26.53,590.11c.42.2.64.48.39.95C26.48,590.87,26.26,590.59,26.53,590.11Z" transform="translate(-0.04 -3.16)"/><path class="cls-1" d="M902.23,711.28a.91.91,0,0,1,.79-1.2C903.05,710.67,902.9,711.14,902.23,711.28Z" transform="translate(-0.04 -3.16)"/><path class="cls-1" d="M900.54,713.58a1.16,1.16,0,0,1,.81-1.24A1.08,1.08,0,0,1,900.54,713.58Z" transform="translate(-0.04 -3.16)"/><path class="cls-1" d="M947.14,555.84a1.15,1.15,0,0,1,.59-1.37C947.8,555,947.8,555.58,947.14,555.84Z" transform="translate(-0.04 -3.16)"/><path class="cls-1" d="M928.77,639.7c-.34-.52,0-.76.43-.92C929.41,639.25,929.2,639.53,928.77,639.7Z" transform="translate(-0.04 -3.16)"/><path class="cls-1" d="M926.09,659.8c-.36-.59-.1-1,.37-1.4C926.53,658.92,926.6,659.43,926.09,659.8Z" transform="translate(-0.04 -3.16)"/><path class="cls-1" d="M925.52,662.61c-.25-.4-.23-.73.25-1C926.07,662.08,925.9,662.38,925.52,662.61Z" transform="translate(-0.04 -3.16)"/><path class="cls-1" d="M930.47,631.32c-.52-.68-.06-1,.48-1.33A1.19,1.19,0,0,1,930.47,631.32Z" transform="translate(-0.04 -3.16)"/><path class="cls-1" d="M891.7,724.7a.77.77,0,0,1,.73-1.09A1,1,0,0,1,891.7,724.7Z" transform="translate(-0.04 -3.16)"/><path class="cls-1" d="M117,765.47a1,1,0,0,1,.8,1.17C117.15,766.5,117,766.05,117,765.47Z" transform="translate(-0.04 -3.16)"/><path class="cls-1" d="M940,581.55c-.35-.64.13-.95.52-1.29C940.54,580.79,940.52,581.28,940,581.55Z" transform="translate(-0.04 -3.16)"/><path class="cls-1" d="M929.31,636.35c-.31-.49,0-.76.38-1C930,635.87,929.77,636.16,929.31,636.35Z" transform="translate(-0.04 -3.16)"/><path class="cls-1" d="M903.37,709.6a1,1,0,0,1,.79-1.14C904.17,709,904,709.47,903.37,709.6Z" transform="translate(-0.04 -3.16)"/><path class="cls-1" d="M769.9,98.63c-.74.12-1.21-.4-1.73-.77-9-6.31-18.93-10.64-28.8-15.27-10.62-5-21.53-9.28-32.3-13.88C693.87,63.08,680.9,57,668.34,50.1,656.76,43.73,645.5,36.79,634,30.25c-9.87-5.63-20.1-10.56-30.42-15.31-5.64-2.6-11.82-3.18-17.7-4.88-4.54-1.31-9-2.91-13.7-3.68A70.33,70.33,0,0,0,562,5.3c-8.29-.1-16.64-.61-24.87.12-11.07,1-22.19,1-33.24,2.54A130.08,130.08,0,0,1,473,8.3c-8.11-.83-16.23-1.5-24.32-2.51-7.15-.89-14.36.12-21.45-.7-10.4-1.2-20.8-1-31.21-1a102.45,102.45,0,0,0-35,6.61c-16.74,6.09-32.15,14.61-47.69,23C300.1,41,287,48.38,273.11,54.4c-13.66,5.93-27.7,10.81-41.52,16.3-17.58,7-34.64,15.06-49.51,27a132.87,132.87,0,0,0-19.52,19.44c-4.59,5.61-9.11,11.27-13.69,16.88a4.82,4.82,0,0,1-1.11.79c1.47-3.47,4.29-6,6.43-9,5.15-7.19,11.28-13.55,17.3-20,4.94-5.27,10.84-9.54,16.75-13.74,11.21-8,23.35-14,36.06-19.21,13.16-5.36,26.59-10,39.7-15.47a278.7,278.7,0,0,0,29.66-14C303.7,37.81,314,32.52,324,26.86c9.17-5.18,18.52-10.08,28.36-13.65,8.17-3,16.1-6.87,24.77-8.32a99.21,99.21,0,0,1,14.07-1.41c9.13-.22,18.33-.66,27.4.11,8.55.72,17.08.56,25.6,1,8,.44,16,1.69,24,2.54,2.85.31,5.72.6,8.59.7a220.06,220.06,0,0,0,39.15-2.2c.18,0,.37,0,.56,0,15.43-.46,30.84-1.73,46.29-1.08a65.56,65.56,0,0,1,17,2.7,146.52,146.52,0,0,0,17.47,4.67c5.69,1,10.46,4.31,15.7,6.44,9.42,3.84,18,9.24,26.84,14.24C649.19,38,658.54,43.51,668,48.92c10,5.75,20.49,10.61,31,15.39,9.71,4.44,19.82,8,29.57,12.35,11.79,5.26,23.72,10.29,34.84,16.93A24.94,24.94,0,0,1,769.9,98.63Z" transform="translate(-0.04 -3.16)"/><path class="cls-1" d="M110.49,185.69c-2.06,4.37-5.76,7.46-8.89,10.95-8,8.93-16.46,17.46-24.43,26.42C67.23,234.25,57.82,245.88,50.44,259A103.71,103.71,0,0,0,39.1,288.77c-.93,4.45-3.42,8.47-4.06,13-.89,6.32-1.73,12.65-2.3,19A133.06,133.06,0,0,1,27.87,346c-.37,1.3-.23,2.82-1.33,3.88a112.5,112.5,0,0,1,3.06-14.29A133.8,133.8,0,0,0,32,321.14c1.44-10.3,1-20.92,5.82-30.65,1.69-3.42,2.24-7.44,3-11.25A33,33,0,0,1,43,272.09,176.47,176.47,0,0,1,67,233.64c7.41-9.2,15.67-17.6,23.58-26.34,6.22-6.88,13-13.3,18.61-20.7A5.08,5.08,0,0,1,110.49,185.69Z" transform="translate(-0.04 -3.16)"/><path class="cls-1" d="M876.19,224.29c-1.06-.3-1.62-1.22-2.31-1.94a399.91,399.91,0,0,1-40.26-48.57c-6.11-8.75-11.5-18-18-26.48-.55-.72-1.28-1.39-1.22-2.43,2.55,2.08,4.15,4.93,5.92,7.57,7.65,11.41,15.18,22.89,23.46,33.84q7.22,9.53,15.26,18.4c5.5,6,10.75,12.29,16.48,18.12A2.1,2.1,0,0,1,876.19,224.29Z" transform="translate(-0.04 -3.16)"/><path class="cls-1" d="M926.93,315.23c-.78-9.26-5-17.55-7.46-26.35-3-10.9-9.26-20.21-15.28-29.6-.55-.85-1.33-1.56-1.42-2.65,2.79,2.38,4.51,5.57,6.31,8.65,3.54,6.09,7.73,12,9.73,18.73,2.59,8.78,6.37,17.19,8,26.26A14,14,0,0,1,926.93,315.23Z" transform="translate(-0.04 -3.16)"/><path class="cls-1" d="M807.36,135.43c-2.76-1.73-4.21-4.65-6.12-7.07a138.69,138.69,0,0,0-29.66-28.19c-.45-.31-1-.5-1.13-1.14,3.19.76,5.52,3.07,7.91,5a132.5,132.5,0,0,1,23.18,23.43C803.52,130.09,806,132.32,807.36,135.43Z" transform="translate(-0.04 -3.16)"/><path class="cls-1" d="M140.72,144.88c-1.77,4.34-4.75,8-7.45,11.68-6.51,8.94-13.35,17.63-20.08,26.42-.49.64-.85,1.48-1.78,1.68,1.18-3.3,3.83-5.59,5.86-8.28,7.56-10,15.28-19.95,22.31-30.38C139.88,145.55,140.08,145,140.72,144.88Z" transform="translate(-0.04 -3.16)"/><path class="cls-1" d="M934.65,361.71c-.71-4.34-.56-8.79-1.78-13.06-1-3.64-2-7.31-2.94-10.95-.14-.54-.41-1.05,0-1.57,2.5,7.72,5,15.44,5,23.69A12.32,12.32,0,0,1,934.65,361.71Z" transform="translate(-0.04 -3.16)"/><path class="cls-1" d="M947.18,412.9a53.89,53.89,0,0,1-5-18.63c1.91,4,1.85,8.6,3.34,12.77C946.22,409,946.64,410.94,947.18,412.9Z" transform="translate(-0.04 -3.16)"/><path class="cls-1" d="M957.58,447.82c-1.6-5-3.73-9.79-4.69-15C954.7,437.76,957.3,442.43,957.58,447.82Z" transform="translate(-0.04 -3.16)"/><path class="cls-1" d="M938.24,381.56a31.59,31.59,0,0,1-2.66-13Q936.92,375.07,938.24,381.56Z" transform="translate(-0.04 -3.16)"/><path class="cls-1" d="M812.39,142.15a18.82,18.82,0,0,1-4.65-6.22C810,137.45,811.25,139.77,812.39,142.15Z" transform="translate(-0.04 -3.16)"/><path class="cls-1" d="M899.09,251.79a12.35,12.35,0,0,1-4.05-5.16A10.38,10.38,0,0,1,899.09,251.79Z" transform="translate(-0.04 -3.16)"/><path class="cls-1" d="M902.57,256.43c-1.35-1.16-2.67-2.35-3.09-4.2A6.92,6.92,0,0,1,902.57,256.43Z" transform="translate(-0.04 -3.16)"/><path class="cls-1" d="M935.21,367.3A7,7,0,0,1,935,363C935.89,364.38,935.59,365.84,935.21,367.3Z" transform="translate(-0.04 -3.16)"/><path class="cls-1" d="M887.92,237.75c-1.28-.88-2.73-1.61-2.93-3.42C886.37,235.13,887.65,236,887.92,237.75Z" transform="translate(-0.04 -3.16)"/><path class="cls-1" d="M880.11,228.76c-1.32-.82-2.67-1.61-2.88-3.37C878.53,226.22,879.81,227.07,880.11,228.76Z" transform="translate(-0.04 -3.16)"/><path class="cls-1" d="M884.57,233.82c-1.17-.62-2.24-1.33-2.32-2.84C883.41,231.62,884.45,232.35,884.57,233.82Z" transform="translate(-0.04 -3.16)"/><path class="cls-1" d="M890.72,241.12c-1-.48-1.89-1-1.82-2.31A2.4,2.4,0,0,1,890.72,241.12Z" transform="translate(-0.04 -3.16)"/><path class="cls-1" d="M894.63,246.17a2.64,2.64,0,0,1-1.8-2.33A2.4,2.4,0,0,1,894.63,246.17Z" transform="translate(-0.04 -3.16)"/><path class="cls-1" d="M927.46,319.17c-.64-.79-.45-1.73-.45-2.63C928.09,317.26,927.68,318.23,927.46,319.17Z" transform="translate(-0.04 -3.16)"/><path class="cls-1" d="M941.88,393a3.06,3.06,0,0,1-.81-2.69A2.61,2.61,0,0,1,941.88,393Z" transform="translate(-0.04 -3.16)"/><path class="cls-1" d="M26.44,351.2a1.55,1.55,0,0,1-.51,2C25.74,352.47,25.48,351.69,26.44,351.2Z" transform="translate(-0.04 -3.16)"/><path class="cls-1" d="M144.56,139.28a1.64,1.64,0,0,1-1.25,1.78A1.54,1.54,0,0,1,144.56,139.28Z" transform="translate(-0.04 -3.16)"/><path class="cls-1" d="M147.43,135.37c.09,1-.54,1.43-1.33,1.76A1.53,1.53,0,0,1,147.43,135.37Z" transform="translate(-0.04 -3.16)"/><path class="cls-1" d="M892.4,243.35c-.84-.28-1.39-.77-1.26-1.75A1.57,1.57,0,0,1,892.4,243.35Z" transform="translate(-0.04 -3.16)"/><path class="cls-1" d="M958.7,455.09c-.52-.47-.38-1-.14-1.54A1,1,0,0,1,958.7,455.09Z" transform="translate(-0.04 -3.16)"/><path class="cls-1" d="M928,322.54a1.34,1.34,0,0,1-.41-1.53C928.37,321.34,928.36,321.89,928,322.54Z" transform="translate(-0.04 -3.16)"/><path class="cls-1" d="M142.94,141.52a1,1,0,0,1-.76,1.21C142.15,142.14,142.3,141.67,142.94,141.52Z" transform="translate(-0.04 -3.16)"/><path class="cls-1" d="M813.52,143.81a.92.92,0,0,1-.72-1.17C813.41,142.81,813.53,143.27,813.52,143.81Z" transform="translate(-0.04 -3.16)"/><path class="cls-1" d="M141.82,143.2a.94.94,0,0,1-.75,1.21C141,143.83,141.17,143.36,141.82,143.2Z" transform="translate(-0.04 -3.16)"/><path class="cls-1" d="M958.12,451.19a.69.69,0,0,1-.21-1C958.37,450.44,958.53,450.75,958.12,451.19Z" transform="translate(-0.04 -3.16)"/><path class="cls-1" d="M939.34,385c-.38-.36-.88-.68-.52-1.33C939.41,383.92,939.42,384.43,939.34,385Z" transform="translate(-0.04 -3.16)"/><path class="cls-1" d="M951.1,425.21c-.38-.35-.86-.67-.49-1.31C951.17,424.19,951.17,424.69,951.1,425.21Z" transform="translate(-0.04 -3.16)"/><path class="cls-1" d="M951.68,427.92c-.38-.32-1-.54-.49-1.23A1.13,1.13,0,0,1,951.68,427.92Z" transform="translate(-0.04 -3.16)"/><path class="cls-1" d="M145.77,137.61a.91.91,0,0,1-.81,1.15C145,138.18,145.13,137.73,145.77,137.61Z" transform="translate(-0.04 -3.16)"/><path class="cls-1" d="M67.24,479.5c0-16.58-.14-33.17.05-49.76.14-12.19.55-24.39,1.14-36.57a103.58,103.58,0,0,1,5.16-27.64,55.86,55.86,0,0,0,1.7-6.77c3.86-19.74,12.36-37.64,22-55,13.82-24.8,31-47.37,47.67-70.23,13-17.75,25.76-35.64,39.65-52.68C206,154.63,231,132.77,261.52,117.58a397.28,397.28,0,0,1,43.32-18c13.94-5,28-9.54,42.05-14.26,12.62-4.25,25.32-8.3,38-12.3,14.62-4.61,29.35-9,44.46-12.08,12.71-2.6,25.35-5.3,38.33-5.9a234.68,234.68,0,0,1,66.8,6.6c16.94,4.12,33.56,9.13,50.19,14.24,11.67,3.59,23.18,7.65,34.81,11.33,13.75,4.36,27.42,9,40.94,14.06,12.84,4.83,25.51,10,37.83,16a210.13,210.13,0,0,1,52.31,36.45,330.75,330.75,0,0,1,36,40.79q28,36.84,54.62,74.62c12.63,17.91,24.38,36.43,33,56.65,4.73,11.1,8.13,22.69,11.51,34.33,6,20.58,6.72,41.41,7.28,62.46.87,33.17.65,66.34.27,99.51-.2,17-.18,34.09-2.5,51a33.29,33.29,0,0,1-.66,3.85c-4.64,18.6-8.74,37.33-17,54.83-10.88,23-24.69,44.21-39.57,64.77-12,16.53-23.71,33.22-36,49.47-14.34,18.91-28.49,38-45.92,54.35a222.26,222.26,0,0,1-60,40.38c-19.44,8.86-39.47,16.11-59.76,22.79-12.82,4.23-25.61,8.6-38.48,12.66-12.14,3.83-24,8.58-36.63,11-8.09,1.57-15.6,5.78-23.95,6.48-12.48,1-24.56,4.44-37,6a129.46,129.46,0,0,1-45.26-2.41c-9.56-2.17-19.38-2.65-28.93-4.81-6.74-1.53-12.94-4.8-19.78-6s-13.24-3.77-19.84-5.71c-12.6-3.71-25-7.94-37.51-12-12.85-4.16-25.67-8.39-38.35-13.07-15.14-5.58-30.25-11.18-44.65-18.46A229.41,229.41,0,0,1,224,813.42c-18.63-14.48-33.93-32.08-48.17-50.72-24.53-32.13-48.72-64.52-70.79-98.4C94,647.31,85.51,629,78.61,609.88c-2.45-6.76-2.86-14.06-5.17-20.86-5.29-15.62-5.23-31.85-5.8-48C66.92,520.49,67.25,500,67.24,479.5Zm25.67-2.56c-.52,24-.07,47.07,1.54,70.12.7,10.12,1.71,20.22,2.81,30.31.66,6.06,3.78,11.49,5.13,17.39,2.55,11.2,7.63,21.39,12.69,31.54,8.47,17,19,32.69,30,48.06,13,18.15,26.25,36.17,39.45,54.21,14.81,20.24,30.54,39.69,49.15,56.67a191.17,191.17,0,0,0,46.24,31c15.86,7.65,32.39,13.68,49.11,19.21,15.64,5.18,31.16,10.73,47,15.35,7.86,2.29,15.21,6,23.37,7.52,10.36,1.87,19.82,7.09,30.43,8.26,8.45.93,16.44,4.17,24.77,5.69,12.65,2.31,25.47,1.2,38.22,1.25a67.6,67.6,0,0,0,19.31-2.68c3.84-1.12,7.71-2.21,11.64-3,10.61-2,21.3-3.6,31.34-7.91a40.63,40.63,0,0,1,7.82-2.1,71.9,71.9,0,0,0,11.22-3.42c11.49-4.37,23.29-7.89,35-11.47,10.61-3.24,21.11-6.82,31.52-10.52,16.74-6,33.34-12.32,49-21a200.68,200.68,0,0,0,34.57-24c15-13,27.93-27.94,40-43.61q30.57-39.78,59-81.11c14.79-21.58,28.27-43.85,35.17-69.44,1.5-5.56,4.23-10.78,4.88-16.58,2-18,3.39-36,3.84-54,.57-22.34.77-44.7.42-67.06-.33-21.14-1.58-42.21-2.74-63.3-.88-16-6.07-30.64-11-45.38-3.56-10.55-9-20.43-14.7-30.08a561.51,561.51,0,0,0-31.78-47.62c-13.19-17.93-25.86-36.24-39.53-53.8-10.46-13.43-20.94-26.86-33.18-38.82a203.48,203.48,0,0,0-56.37-39.22c-7.27-3.4-14.78-6.2-22.11-9.4-11.3-4.94-23.22-8-34.71-12.42-4.24-1.61-8.91-2.12-13.1-3.93-11.41-4.94-23.54-7.67-35.24-11.75-16.7-5.81-34-9.85-51.06-14.38-11.25-3-22.9-2.74-34.42-3.3a194.66,194.66,0,0,0-24.86.42c-9.27.74-18.61.84-27.61,3.74-13.74,4.42-27.94,7.17-41.69,11.68-12.46,4.09-25,8.08-37.46,12.12-4.06,1.32-8,3.11-12.14,4.18-10.3,2.64-20.2,6.58-30.16,10.17-11.11,4-22.11,8.39-32.81,13.5-29.29,14-53.6,34.13-73.85,59.33-10,12.48-19.92,25.05-29.27,38.08-12.43,17.33-25.25,34.37-37.49,51.83-13,18.57-25,37.8-33.4,58.94-3.71,9.31-6.26,19.09-9.32,28.66a9.79,9.79,0,0,0-.26,1.65c-2.33,19.61-3.56,39.31-4.28,59C92.49,449.65,92.91,463.74,92.91,476.94Z" transform="translate(-0.04 -3.16)"/><path class="cls-2" d="M92.91,476.94c0-13.2-.42-27.29.1-41.34.72-19.72,1.95-39.42,4.28-59a9.79,9.79,0,0,1,.26-1.65c3.06-9.57,5.61-19.35,9.32-28.66,8.42-21.14,20.39-40.37,33.4-58.94,12.24-17.46,25.06-34.5,37.49-51.83,9.35-13,19.23-25.6,29.27-38.08,20.25-25.2,44.56-45.33,73.85-59.33,10.7-5.11,21.7-9.49,32.81-13.5,10-3.59,19.86-7.53,30.16-10.17,4.16-1.07,8.08-2.86,12.14-4.18,12.49-4,25-8,37.46-12.12,13.75-4.51,27.95-7.26,41.69-11.68,9-2.9,18.34-3,27.61-3.74a194.66,194.66,0,0,1,24.86-.42c11.52.56,23.17.31,34.42,3.3,17.1,4.53,34.36,8.57,51.06,14.38,11.7,4.08,23.83,6.81,35.24,11.75,4.19,1.81,8.86,2.32,13.1,3.93,11.49,4.38,23.41,7.48,34.71,12.42,7.33,3.2,14.84,6,22.11,9.4a203.48,203.48,0,0,1,56.37,39.22c12.24,12,22.72,25.39,33.18,38.82,13.67,17.56,26.34,35.87,39.53,53.8a561.51,561.51,0,0,1,31.78,47.62c5.69,9.65,11.14,19.53,14.7,30.08,5,14.74,10.16,29.37,11,45.38,1.16,21.09,2.41,42.16,2.74,63.3.35,22.36.15,44.72-.42,67.06-.45,18-1.81,36.06-3.84,54-.65,5.8-3.38,11-4.88,16.58-6.9,25.59-20.38,47.86-35.17,69.44q-28.35,41.38-59,81.11c-12,15.67-25,30.62-40,43.61a200.68,200.68,0,0,1-34.57,24c-15.66,8.65-32.26,15-49,21-10.41,3.7-20.91,7.28-31.52,10.52-11.74,3.58-23.54,7.1-35,11.47A71.9,71.9,0,0,1,563,857.9a40.63,40.63,0,0,0-7.82,2.1c-10,4.31-20.73,5.9-31.34,7.91-3.93.75-7.8,1.84-11.64,3a67.6,67.6,0,0,1-19.31,2.68c-12.75,0-25.57,1.06-38.22-1.25-8.33-1.52-16.32-4.76-24.77-5.69-10.61-1.17-20.07-6.39-30.43-8.26-8.16-1.47-15.51-5.23-23.37-7.52-15.82-4.62-31.34-10.17-47-15.35C312.35,830,295.82,823.92,280,816.27a191.17,191.17,0,0,1-46.24-31c-18.61-17-34.34-36.43-49.15-56.67-13.2-18-26.41-36.06-39.45-54.21-11-15.37-21.57-31.1-30-48.06C110,616.15,104.94,606,102.39,594.76c-1.35-5.9-4.47-11.33-5.13-17.39-1.1-10.09-2.11-20.19-2.81-30.31C92.84,524,92.39,500.91,92.91,476.94Zm397,190.19c-6.44.15-10.92-.09-15.37.64-16.57,2.73-29.39,10.86-37,26.11-4.3,8.59-3.52,18-3.15,27.18a52.94,52.94,0,0,0,4.2,17.86c4.69,11.52,11.07,22.12,17.44,32.75,5.71,9.52,11.49,18.91,19.1,27.12,13.34,14.36,30.16,20.77,49.27,21.84,10.11.56,19.68-2.41,29.31-5.13A48.73,48.73,0,0,0,578.91,799c7.31-9,10.85-19.17,9.23-30.9-1.47-10.61-5.85-20.08-12-28.57-11.44-15.73-23-31.36-35.17-46.57C527.48,676.08,510.44,665.76,489.86,667.13ZM324.63,424.6a38.07,38.07,0,0,0-.47-5.86c-3.68-16.86-13.69-28.77-28.6-37-8-4.41-16.38-8.07-24.48-12.29-8.59-4.47-17.13-9-25.68-13.58-14.76-7.85-30.35-10.5-46.53-7.13-18.6,3.87-33.75,13.65-44,30-6.43,10.3-7.45,21.4-3.35,33,4.59,12.92,12.62,23.36,23,32.09s22.19,16,33.72,23.37c7,4.47,14.19,8.69,22,11.39a68.5,68.5,0,0,0,39.13,1.76c18.15-4.46,33.47-13.91,45-28.78A46.48,46.48,0,0,0,324.63,424.6ZM471.32,575.85c4.72-.11,9.48.3,14.21-.5,18.88-3.18,34.72-11.38,45.84-27.51,5.53-8,9.74-16.74,13.78-25.54,6.25-13.63,12.23-27.29,15.46-42.1,2.57-11.82,2.19-23.15-2.34-34.24-5.25-12.86-14.43-21.58-28.16-24.86-10.77-2.57-21.68-1.58-32.55-.75A46.14,46.14,0,0,0,482,424.41c-13.72,6.21-23.34,16.74-30.89,29.37-8.17,13.67-15.4,27.88-24.06,41.27a67.35,67.35,0,0,0-11.19,34.12c-.73,17.45,7.05,30.36,21.93,39.24C448.12,574.61,459.37,576.72,471.32,575.85Zm10.51-276.53c4.5.19,8.94-.48,13.4-.79,10.3-.72,20.08-3.07,28.6-9.24,8.33-6,15.39-13.11,17.77-23.55,3.66-16,.62-30.78-8.7-44.37-6.91-10.08-14.75-19.43-22-29.21-5.89-7.91-11.15-16.3-18-23.47-7.83-8.19-16.4-15.28-27.74-17.95-12.51-3-25.1-2.35-37.8-1.09-24,2.38-40.8,25.9-38.14,49.17a81.93,81.93,0,0,0,7.37,25.69,275.18,275.18,0,0,0,27.75,46.8c7.6,10.22,16.65,18.91,28.69,23.78C462.22,298.83,472.09,298.8,481.83,299.32ZM813,561.09c-.06-5.8-.23-9.88-.48-14-.74-12.32-5.09-23.43-11.25-33.86-8.87-15-23.31-22.84-39.2-27.84-12.92-4.06-25.77-8.63-39.36-10.4-6.53-.85-12.83-3.22-19.49-3.42-9.28-.29-18.17,1.85-26.68,5.26-13.81,5.52-22.77,15.65-26.19,30.17-2.86,12.16-.48,24,3.27,35.65,6.24,19.49,19.35,32.38,37.94,39.88,15.36,6.2,31.1,11.46,46.3,18.07,10.27,4.48,20.7,7.36,32.12,7.27,17.54-.13,29.57-8.71,38.16-23.09C812.74,577,813.21,568.22,813,561.09ZM633.67,407c0,.87,0,2.18,0,3.48a16.41,16.41,0,0,0,6.42,13.07c3.68,3,7.72,3.18,11.54.39,5.65-4.14,9.27-9.66,9.11-16.76-.26-11.67,4.87-20.56,13.25-28,8.68-7.75,18.57-11.54,30.31-9.19,5.06,1,9.21,3.89,13.45,6.6s8.48,5.8,13.75,6.53a14.33,14.33,0,0,0,14.15-7.58c2.43-4.53,1.67-8.18-2.76-13.08-6.73-7.46-15.23-12.08-24.56-15.43-6.51-2.33-13.07-4.53-20-4.69-7.35-.17-14.32,1.89-21.26,4.2C650.76,355.22,633.17,381.47,633.67,407ZM305.58,624.9c-.42-4.25-.89-8.41-1.23-12.58-1.84-22.38-22.35-42.92-41.41-48.07a76.78,76.78,0,0,0-39.5-.17,45.26,45.26,0,0,0-22.05,12.54c-5.35,5.6-4.74,12.34,1.31,17.2a13.86,13.86,0,0,0,13.66,2.41,36.35,36.35,0,0,0,6.38-2.83,94.71,94.71,0,0,1,13.55-5.92,17.64,17.64,0,0,1,10.93-.73c16.87,4.71,28.07,15.16,32.72,32.26a19.59,19.59,0,0,1,.24,9.65c-1.94,8.6,1.56,14,7.28,18.47a7.76,7.76,0,0,0,5,1.55c5.29,0,10.77-5.28,11.8-11.64C304.86,633,305.14,628.92,305.58,624.9Zm294.31-.29c-8.63-.1-15.08,9.44-11.7,17.32a27.54,27.54,0,0,0,6.63,8.88c4.3,4.12,9,7.74,13.18,12.05,8.06,8.39,15.57,17.32,24.58,24.76,4,3.31,8,6.72,12.62,9.17,5.88,3.12,11.32,1.91,16-3.35,4.14-4.62,4.38-9.79.64-15.31a40.27,40.27,0,0,0-7.66-8.09,159.18,159.18,0,0,1-15.91-15.25c-9-10-18.38-19.52-29.63-27C606,626,603.21,624.55,599.89,624.61ZM414.5,394.82c7.87,0,14.65-7.49,13.37-14.61A17.6,17.6,0,0,0,421.5,370c-10.34-8.74-19.48-18.66-28.77-28.46-6.73-7.09-13.92-13.81-22.59-18.55-7.29-4-16-.33-18.83,7.54a10,10,0,0,0-.1,6.82c1.66,4.92,5.24,8.37,9,11.53,8,6.75,15.13,14.33,22.29,21.91,7.36,7.79,15,15.28,24.07,21.17C409.07,393.54,411.67,395,414.5,394.82ZM306.32,753.28a14.91,14.91,0,0,0,6.54-1.4,121.25,121.25,0,0,0,24.19-15.5c9.38-7.47,18.08-15.81,28.36-22.16a34.29,34.29,0,0,0,7.9-7.45c3-3.52,3.56-8.54,1.63-12-4.32-7.77-11.37-9.77-19.17-5.63a140,140,0,0,0-22.37,14.75c-9.84,8-19.35,16.31-30.11,23.08a25.92,25.92,0,0,0-6.88,6.89c-2.53,3.5-3.93,7.39-1.73,11.49C297.14,749.91,300.91,752.9,306.32,753.28Zm247.79-423.4a12.69,12.69,0,0,0,.13,1.37c1.32,7,9.63,12.21,16.37,9.9,8.11-2.77,15.07-7.67,21.91-12.68,11.78-8.63,22.16-19.06,34.64-26.81a22.78,22.78,0,0,0,7.44-8.23,10.59,10.59,0,0,0,1.65-7.19c-1.37-8-10.67-12.75-18.48-9.28a107.74,107.74,0,0,0-17.5,10.42c-8.66,6-16.34,13.24-24.69,19.62-4.88,3.72-10.33,6.7-14.76,11C557.45,321.3,554.46,324.84,554.11,329.88Zm179-24.61c5,0,8.89-.13,12.8,0,6.66.27,11.64-2.61,15.5-7.79a9,9,0,0,0,.4-10.93c-3.67-5.46-8.69-8.48-15.44-8.43-8.11.07-16.23.13-24.33,0-6.5-.11-11.2,2.94-14.91,7.87-2.07,2.76-3,5.95-1.33,9.19,2.42,4.72,6,8.31,11.39,9.54C722.76,306,728.47,304.86,733.07,305.27Zm79.71,138c0-5.83-7.13-13.15-12.78-13.09s-12.62,7.28-12.68,12.94,7.12,13.08,12.83,13.05S812.77,449.09,812.78,443.28ZM611.92,546.38c.05-6.7-7.57-14-13.33-13.76a5.29,5.29,0,0,0-1.38.2,16,16,0,0,0-10.64,10.27c-1.65,4.86,1.35,8.35,4.63,11.42,3.12,2.91,6.65,5.1,11.06,3C607.36,555.08,611,551.3,611.92,546.38Zm16.33-356.61c0-5.38-7.23-12.65-12.62-12.67-5.56,0-13.18,7.2-13.22,12.52,0,5.5,7.22,12.67,12.89,12.73S628.24,195.41,628.25,189.77Zm-402,503.37c5.6.09,12.92-7,13-12.64s-7.2-12.66-12.87-12.71-12.72,6.94-12.78,12.42S220.68,693.06,226.26,693.14Zm520.56-12.91c0-5.47-7.22-12.53-12.71-12.49-5.69,0-12.8,7.16-12.77,12.78s7.14,12.66,12.58,12.66C739.64,693.19,746.85,685.94,746.82,680.23ZM357.57,512.05c0-5.25-6.88-12-12.35-12.12s-12.73,6.68-12.7,12.06,7,12,12.5,12S357.54,517.35,357.57,512.05Zm72.79,111.32c5.32,0,12.05-6.53,12.05-11.66s-6.84-12-11.85-12c-5.21,0-12.13,6.74-12.22,12C418.26,616.72,425.08,623.37,430.36,623.37Zm78.48-263.14c-.06-4.75-5-10.33-9.85-11.87a6.94,6.94,0,0,0-4.38-.22c-4.87,1.61-8.54,4.72-10,9.66-1.28,4.3,1.75,7.1,4.49,9.81a11.61,11.61,0,0,0,1,.94c3,2.38,6.35,3.75,10.05,1.75C504.53,367.93,508,364.74,508.84,360.23ZM289.77,259c.15-5.08-6.55-12.11-11.61-12.18-4.76-.07-11.76,6.72-12,11.62-.23,5.05,6.63,12.36,11.74,12.51C282.83,271.11,289.62,264.27,289.77,259ZM160.53,523.37c5,0,11.76-6.59,11.79-11.59s-6.63-11.59-11.78-11.54c-5,0-11.91,6.81-11.92,11.6S155.48,523.34,160.53,523.37Z" transform="translate(-0.04 -3.16)"/><path class="cls-2" d="M526.92,794.06c-15.78,1.6-26.71-6.62-35.59-17.95-9.21-11.73-16.11-25-23.68-37.84a46.33,46.33,0,0,1-6.79-24.95c.18-10,5.39-16.6,15.19-18.46a65.26,65.26,0,0,1,23.07-.22c5.24.88,9.42,3.79,13.3,7.26,6.17,5.52,10.71,12.36,15.61,18.92C537.1,733,546.31,745,555.42,757.17c2.46,3.28,4.84,6.69,5.72,10.77,1.72,8-1.3,14.25-8.49,18.95C544.75,792.06,536.28,794.86,526.92,794.06Z" transform="translate(-0.04 -3.16)"/><path class="cls-2" d="M213.11,372.51c5.66.75,12.06,3.08,18.18,6,6.89,3.29,13.48,7.18,20.27,10.68,7,3.62,14.11,7.18,21.24,10.61,9.44,4.56,17.94,10.23,23.75,19.24a9.83,9.83,0,0,1,.34,10.59c-3.13,5.88-7.73,10.42-12.92,14.47a66.63,66.63,0,0,1-27.46,12.5,19.06,19.06,0,0,1-8.82-.58,73.25,73.25,0,0,1-23.61-10.48c-10.85-7.38-22.26-14-32.26-22.54a59.22,59.22,0,0,1-13.32-15.66c-3.41-6-2.93-12.63,1.58-17.94,6.4-7.52,14.74-12.11,24-15.27A24.69,24.69,0,0,1,213.11,372.51Z" transform="translate(-0.04 -3.16)"/><path class="cls-2" d="M472.18,549.36a80.7,80.7,0,0,1-15.28-1.44c-6.91-1.18-14.9-9.47-16-16.36A12.45,12.45,0,0,1,442,525a117.92,117.92,0,0,1,10.77-20.47c7.59-11.73,13.87-24.23,21.14-36.14C477.74,462.2,481.85,456,488,452c11.07-7.28,23.06-9.72,35.84-4.84a21.62,21.62,0,0,1,12.32,26.31,177.14,177.14,0,0,1-9,23.73c-4.23,9-8,18.22-12.88,26.94a67.32,67.32,0,0,1-14.7,17.74c-6.48,5.7-14.4,6.5-22.42,7.18C475.53,549.19,473.86,549.25,472.18,549.36Z" transform="translate(-0.04 -3.16)"/><path class="cls-2" d="M480,274.88c-9.87-1.33-19.44-4.14-27-11.8A100.81,100.81,0,0,1,438,243.41c-4.82-8.18-10-16.19-14.38-24.58-3.4-6.45-7.22-12.82-8.24-20.32-1.1-8.12,1.06-15.11,8.24-19.26,10.38-6,21.2-8.95,33.25-3.69,8.33,3.63,14.46,9.41,19.81,16.28,11.3,14.54,21.91,29.61,33.34,44.06a30.06,30.06,0,0,1,5.9,12.21c2,8.88-1.61,17.09-10,20.79C497.84,272.46,489.22,274.12,480,274.88Z" transform="translate(-0.04 -3.16)"/><path class="cls-2" d="M676.23,521.08c-.21-14.27,9.31-23.79,23.68-24.11,7.84-.18,15.06,2,22.29,4.51a75.28,75.28,0,0,0,12.49,2.93,41.92,41.92,0,0,1,10.48,2.85c7.2,3.21,15.22,4.46,21.76,9.28a56.33,56.33,0,0,1,14.19,15.21c3.34,5.22,3.89,11.19,4.78,17.06,1,6.55,1.46,13.12-.35,19.66A16.47,16.47,0,0,1,770.8,581a38.68,38.68,0,0,1-18.65-2.6c-13.73-5.74-27.53-11.27-41.53-16.36-8.15-3-16.31-6.5-22.63-12.93C679.63,540.55,676.4,532.85,676.23,521.08Z" transform="translate(-0.04 -3.16)"/></svg>