<?xml version="1.0" encoding="utf-8"?>
<!-- Generator: Adobe Illustrator 24.1.1, SVG Export Plug-In . SVG Version: 6.00 Build 0)  -->
<svg version="1.1" id="Camada_1" xmlns="http://www.w3.org/2000/svg" xmlns:xlink="http://www.w3.org/1999/xlink" x="0px" y="0px"
	 viewBox="0 0 996.3 306.2" style="enable-background:new 0 0 996.3 306.2;" xml:space="preserve">
<style type="text/css">
	.st0{fill:#FDFDFD;}
	.st1{fill:#F26928;}
</style>
<path class="st0" d="M996.4,248.5c-18.3,0-36.7,0-55,0.1c-2.1,0-2.7-0.4-2.7-2.6c0.1-33,0.1-66,0.1-99.1c0-7.2-0.8-14.3-3.8-20.9
	c-5.5-11.9-15.1-18.2-28-19.4c-11-1-21.2,1.1-29.5,9.2c-6.4,6.2-9.3,14-10.4,22.6c-0.4,3.5-0.6,7-0.5,10.5c0,32.3,0,64.7,0.1,97
	c0,2.2-0.4,2.9-2.8,2.9c-17.6-0.1-35.1-0.1-52.7,0c-1.7,0-2.4-0.2-2.4-2.2c0.1-82.1,0.1-164.2,0.1-246.4h57.7v85.3
	c5.3-7.4,12.3-13.6,20.3-18c15-8.4,31.2-10.7,48.1-8.7c24.1,2.8,41.6,15.3,52.6,36.9c4.6,9.1,6.9,19,8,29.1c0.1,0.8-0.5,2,1,2.3
	v121.4H996.4z"/>
<path class="st1" d="M0,181.7C0,158,0,62.6,0,38.8C0,20.9,10.9,6.4,28.1,1.3c0.6-0.2,2.1,0.3,1.7-1.3h284.8
	c-0.2,1.4,0.9,0.9,1.5,1.1c11,2.9,20.2,10.6,25,20.9c2.8,6.4,3.5,13,3.4,19.9c-0.1,19,0,38.1,0,57.1c0,20.4,0,40.8,0,61.2
	c0,0.3,0,0.5-0.1,0.8c-7,16.8-19.3,27.9-36.6,33.3c0-1.1-0.1-2.3-0.1-3.4c0-26.3,0-52.6,0-78.9c0-15.9,0-31.8-0.1-47.7
	c0-7.9,0-15.7,0.2-23.6c0.1-2.4-0.6-3-3-3c-35.6,0.1-71.1,0.1-106.7,0.1c-0.9,0-1.7,0.1-2.6,0.2c-22.2,0-44.4-0.1-66.6-0.2
	c-29.3,0-58.5,0-87.8-0.1c-2.3,0-2.9,0.6-2.9,2.9c0.1,16.6,0,124.5,0.1,141.1c0,0.8-14.2,10.5-22.3,13.8
	C10.8,197.7,5.5,181.4,0,181.7z"/>
<path class="st0" d="M553.9,85.7c0-7.7,0-15.3,0-23c0-1.9,0.3-2.7,2.5-2.7c17.6,0.1,35.3,0.1,53,0c2.2,0,2.5,0.8,2.5,2.7
	c0,61.2,0,122.3,0,183.5c0,2-0.5,2.4-2.4,2.4c-17.7-0.1-35.5-0.1-53.2,0c-1.8,0-2.3-0.4-2.3-2.3c0.1-7.8,0-15.5,0-23.3
	c-0.7-0.4-0.8,0.2-1,0.5c-11.9,16.4-28.1,25.1-48.1,27.2c-20.6,2.2-39.6-2.4-56.2-15s-26.8-29.5-31.8-49.4
	c-6.8-27.1-6-54.1,5.4-79.9c10.6-24,28.3-40.6,54.3-46.6c22.9-5.3,44.8-2.6,64.1,12.1C545.6,75.8,550.1,80.5,553.9,85.7z
	 M553.9,154.2c0.1-5-0.5-10.1-1.7-15c-4.1-17.6-19.2-30.4-37.2-31.6c-17.2-1-33.1,9-39.7,24.9c-5,12.3-5.1,25.1-1.8,37.8
	c4.5,17,19.3,29.5,35.9,30.5c18.6,1,34.4-8.9,41-25.9C552.9,168.2,554.1,161.2,553.9,154.2L553.9,154.2z"/>
<path class="st0" d="M307.9,194.3c17.4-5.4,29.6-16.5,36.6-33.3c0.1-0.3,0.1-0.5,0.1-0.8c0.3-0.8,0.7-1.5,1-2.3
	c4.2-12,4.9-24.4,4-36.9c-0.6-7.5-1.8-15-5-22c0-19-0.2-38.1,0-57.1c0-6.9-0.6-13.6-3.4-19.9c9.5,3.7,18.4,8.9,26.3,15.4
	c22.3,18,35.1,41.4,39.5,69.5c3.7,23.1,2.4,46-5.9,68.1c-12.7,33.8-37,55.4-71,66.7c-1.4,0.5-2.8,1-4.1,1.6c-0.6,0-1.2,0-1.8,0.1
	c-13.3,3.6-26.9,4.9-40.7,4.9c-28.5,0.1-56.9,0-85.4,0.1c-2.2,0-2.6-0.7-2.5-2.7c0.1-11.7,0-23.4,0-35.1v-18.2
	c4-2.6,8.3-4.8,12.9-6.3c4.9-1.8,9.5-4.1,12.7-8.4c4.3-6,9-11.8,14-17.3c2.4-2.8,4-6.2,4.6-9.8c0.9-5.4,1.6-10.8,3.5-16
	c2.2-5.8,2.2-12.1,0.3-17.9c-1.3-3.5-2.2-7.2-2.7-10.9c-0.9-6.9-2.4-13.5-7.7-18.7c-3.9-4-7.4-8.4-10.4-13.1
	c-2.9-4.4-7-7.9-11.9-9.8c-5.3-2.1-10.5-4.3-15.1-7.7c0-6.1,0-12.3,0-18.4c0.9,0,1.7-0.2,2.6-0.2c35.6,0,71.1,0,106.7-0.1
	c2.4,0,3.1,0.6,3,3c-0.2,7.9-0.1,15.7-0.2,23.6c-6.3-2-12.9-3.2-19.5-3.6c-10.9-0.7-21.8-0.2-32.8-0.4c-1.8,0-2.1,0.6-2.1,2.2
	c0,44.5,0,88.9,0,133.4c0,1.6,0.2,2.3,2.1,2.2c9.8-0.1,19.6,0.1,29.4-0.1C292.6,198.1,300.4,196.8,307.9,194.3z"/>
<path class="st0" d="M655.6,186.7c8.7,0,17.5,0,26.2,0c1.7,0,2.3,0.4,2.6,2.2c2,9.7,8.6,15.3,17.6,18.2c7.8,2.6,16.2,2.4,23.9-0.5
	c7.6-2.9,11.2-9.6,9.3-16.5c-1.2-4.3-4.3-6.8-8.2-8.5c-8.6-3.8-17.6-6.1-26.6-8.4c-11.4-2.8-22.9-5.6-33.8-10
	c-13.3-5.3-24.5-13.4-30-27.2c-8.2-20.9-3.4-47.4,18.7-63.4c11.1-8,23.6-12.3,37-14c15.8-2,31.6-1.8,47,2.7
	c28,8.1,46.3,29.9,49.6,58.8c0.1,1.3-0.1,1.7-1.4,1.7c-16.8,0-33.6,0-50.3,0c-1,0-1.5-0.2-1.7-1.3c-2.5-14.2-15.1-21.1-30.8-19.9
	c-3.3,0.2-6.6,0.9-9.6,2.3c-5,2.4-7.9,6.3-8,11.9c-0.1,5.4,2.7,9.3,7.4,11.7c5.9,2.9,12.1,5,18.5,6.4c14.5,3.5,29,7.1,42.8,12.7
	c14.4,5.8,26,14.9,31.3,30.1c8,23.4,1.1,47.7-21.2,62.2c-11.4,7.5-24.1,11.4-37.5,12.8c-17.6,1.9-35.1,0.8-51.9-5.1
	c-17.5-6.2-32-16.2-41.4-32.6c-4.2-7.3-6.9-15.5-7.8-23.9c-0.2-1.8,0.3-2.2,2-2.1C638,186.7,646.8,186.7,655.6,186.7z"/>
<path class="st1" d="M195.5,210.6c0,11.7,0.1,23.4,0,35.1c0,2,0.4,2.7,2.5,2.7c28.5-0.1,56.9,0,85.4-0.1c13.7,0,27.3-1.3,40.7-4.9
	c0.6-0.1,1.2-0.2,1.8-0.1c-6.1,4.3-13,5.7-20.3,5.7c-33.6,0-67.3,0-100.9,0c-0.4,0-0.9,0-1.3,0c-1.8-0.2-2.3,0.3-1.7,2.1
	c1.8,4.9,3.4,9.9,5,14.9c0.5,1.6,1.3,2.1,3,2.1c13.1-0.1,26.2-0.2,39.3,0c8,0.1,14.1,4,17.3,11.4s2.1,14.4-3.3,20.5
	c-3.5,4.1-8.6,6.3-13.9,6.2c-51.1,0-102.2,0-153.3,0c-10.5,0.1-19.1-8.4-19.2-19c-0.1-10.5,8.4-19.1,19-19.2
	c12.9-0.1,25.9-0.1,38.8,0c2.2,0,3.1-0.7,3.7-2.6c1.4-4.7,3-9.3,4.6-13.9c0.8-2.1,0.3-2.6-1.9-2.6c-31.7,0.1-63.4,0-95.1,0.1
	c-6.8,0-13.6-0.2-20.2-1.9c-3.5-2.2-7.5-3.6-10.7-6.3C5.4,233.1,0.3,223.4,0,211.3c-0.1-4-0.1-8-0.1-12C0,185.7,0,172,0,158.3
	c0.5,0.2,1,0.3,1.4,0.6c10.6,5.8,21.4,11,32.2,16.3c1.6,0.8,3.4,1.4,4.8,2.6c0,10.2,0,20.3-0.1,30.5c0,2,0.6,2.5,2.5,2.4
	c4-0.1,8,0,12,0c7,0.5,14.1,0.1,21.1,0.2c3.8,0,7.7,0.3,11.5-0.2L195.5,210.6z"/>
<path class="st1" d="M195.5,192.4c-5.8,3.1-12,3.6-18.5,2.7c-4.5-0.7-9.1-0.3-13.6,0c-4.8,0.4-9.6-0.7-13.8-3.3
	c-5-3.1-10.4-5.8-15.9-7.9c-4.7-1.9-8.8-5.2-11.6-9.5c-3.2-5-6.9-9.7-11-14c-3.7-4-6-9-6.5-14.5c-0.6-5.3-1.8-10.5-3.6-15.5
	c-1.8-5.3-1.7-11,0.3-16.2c1.7-5.3,2.9-10.8,3.6-16.3c0.6-4.4,2.6-8.4,5.7-11.6c4.4-4.6,8.4-9.6,12-14.8c3.1-4.4,7.6-7.6,12.7-9.3
	c4-1.3,7.8-3,11.4-5.2c5.8-3.9,12.8-5.4,19.7-4.4c3.9,0.6,7.8,0.7,11.8,0.2c6-0.8,12.1,0.4,17.4,3.5c4.6,3.4,9.8,5.6,15.1,7.7
	c4.9,1.9,9.1,5.4,11.9,9.8c3,4.7,6.5,9.1,10.4,13.1c5.3,5.2,6.8,11.8,7.7,18.7c0.5,3.7,1.4,7.3,2.7,10.8c2,5.8,1.9,12.2-0.3,17.9
	c-1.8,5.2-2.6,10.6-3.5,16c-0.5,3.6-2.1,7.1-4.6,9.8c-5,5.5-9.7,11.3-14,17.3c-3.1,4.4-7.8,6.6-12.7,8.4
	C203.8,187.6,199.5,189.8,195.5,192.4z M109.9,123.9c0,3.5,0,7,0,10.5c0.2,6.9,2.5,13.7,6.5,19.3c3.4,4.9,7,9.6,10.5,14.4
	c4.7,6.4,10.9,10.4,18.3,12.9c5.8,2,11.5,4.1,17.5,5.5c4.7,1.2,9.5,1.9,14.5,0.9c8-1.5,15.5-4.3,23-6.9c6.5-2.2,12.2-6.2,16.5-11.6
	c4.1-5.2,8.1-10.5,11.7-16.1c4-5.8,6-12.7,6-19.7c0-5.9-0.1-11.9,0-17.8c0.1-7.1-2-14.1-6-20c-3.7-5.6-7.7-11-11.9-16.3
	c-3.8-4.8-8.7-8.4-14.3-10.7c-6.7-2.6-13.5-4.8-20.3-6.8c-6.7-1.9-13.8-1.8-20.4,0.3c-5.8,1.8-11.6,3.7-17.4,5.7
	c-6.6,2.2-12.4,6.3-16.6,11.8c-3.7,4.9-7.3,9.8-10.8,14.8c-2.9,4-5,8.7-6,13.5C109.5,113.1,109.9,118.5,109.9,123.9z"/>
<path class="st1" d="M230.7,124.2c-0.1,5.7,0.2,11.4-1.3,16.9c-2,7.3-6.9,12.8-11.1,18.8c-0.7,0.9-1.4,1.8-2,2.7
	c-5.1,7.6-12.7,13.2-21.6,15.6c-4.2,1.2-8.3,2.7-12.5,4c-6.4,2.2-13.4,2.2-19.8,0.1c-5.4-1.7-10.8-3.5-16.2-5.3
	c-6.2-2-11.6-5.9-15.6-11c-4.1-5.1-7.9-10.4-11.6-15.9c-3.5-5.2-5.3-11.3-5.3-17.5c-0.1-6.8-0.2-13.6,0.2-20.4
	c0.4-5.3,2.3-10.4,5.4-14.8c3.6-5.4,7.5-10.7,11.6-15.8c4.1-5.1,9.6-8.8,15.8-10.8c6.3-2.2,12.7-4.6,19.2-5.9
	c5.3-1.1,10.8-0.8,16,0.9c5.5,1.7,11,3.5,16.4,5.4c6.5,2.2,12.1,6.4,16.1,12c2.7,3.7,5.3,7.4,8.1,10.9c5.5,7,8.4,15.7,8,24.6
	C230.6,120.5,230.7,122.3,230.7,124.2z M173.4,152.7c-5.6,0-8.9,3-8.2,8c0.9,5.5,3.8,10.4,8.3,13.7c1.6,1.1,3.5,1.7,5.5,1.5
	c3.5-0.2,7-0.9,8.8-4.5c1.7-3.4-0.2-6.2-2.1-8.9c-1.3-1.8-2.7-3.6-4.1-5.4C179.5,154.3,176.9,152.5,173.4,152.7z M137.9,124.8
	c2.9-0.1,5.7-1.2,7.8-3.2c4.2-3.7,3.8-8.9-1.1-11.7c-2.9-1.7-6-3.3-9.1-4.7c-4.3-1.8-9.2-0.5-12,3.2c-1.5,1.7-1.8,4.1-0.9,6.1
	C124.5,119.1,133,124.8,137.9,124.8z M170.8,139c3.7,0,6.9-1.1,9-4.3c2.2-3.3,3.8-7.1,4.6-11c0.7-3.5-1.2-7-4.6-8.1
	c-4.3-1.3-9,0.3-11.4,4.1c-1.7,2.5-3.1,5-4.5,7.6C160.4,133.5,163.6,138.9,170.8,139L170.8,139z M222.4,136.1
	c-0.1-5.4-2.4-9-7.2-10.6c-2.7-0.9-5.5-1.6-8.3-2.1c-6.3-1.1-10.5,3.8-8.7,10c0.8,3,2.9,5.5,5.8,6.6c2.8,1.2,5.7,2.3,8.5,3.3
	C218.2,145.2,222.4,142,222.4,136.1z M167.1,74.4c-7.3,0-10.2,4.3-7.8,10.6c0.9,2,1.9,3.9,3,5.8c2.7,4.9,6.8,7,12.4,6.3
	c6.2-0.8,9-6.2,5.6-11.4c-1.8-2.7-3.8-5.3-5.8-7.8C172.7,75.5,169.9,74.2,167.1,74.4z M205.2,103.7c-5.5,0.1-9.9,4.5-10,9.4
	c0,1.4,0.3,2.9,1.9,3c1.3,0.1,2-1.2,2.2-2.5c0-0.2,0-0.3,0-0.5c0.7-4.7,4.6-6.6,8.7-4.3c0.5,0.3,0.9,0.5,1.4,0.7
	c0.9,0.4,2,0.1,2.6-0.7c0.8-1,0.2-1.8-0.5-2.5C209.7,104.8,207.5,103.9,205.2,103.7z M145.8,145.8c-0.1-0.9-0.3-1.8-0.5-2.7
	c-1.8-5.9-9.8-8.5-14.6-4.7c-0.8,0.7-1.7,1.4-0.9,2.6c0.6,0.9,1.8,1.3,2.8,0.8c0.5-0.2,1-0.4,1.4-0.7c2.2-1.3,4-0.6,5.8,0.8
	c1.6,1.2,2.5,3.3,2.2,5.3c-0.1,1.3,0.4,2.4,1.7,2.5s1.8-1.1,2-2.3C145.8,147.1,145.7,146.6,145.8,145.8z M190.5,146.3
	c-1.7,0-2.8,1.9-1.7,3c2.5,2.7,4.9,5.6,8.1,7.7c0.8,0.6,2,0.4,2.6-0.4l0,0c0.7-0.6,0.7-1.6,0.1-2.3l-0.1-0.1
	c-2.6-2.4-4.8-5.3-7.8-7.4C191.3,146.7,190.9,146.5,190.5,146.3L190.5,146.3z M154.4,155.7c-0.2,0-0.5,0.1-0.7,0.2
	c-3.4,1.8-6.3,4.4-9.2,6.8c-0.6,0.5-0.7,1.5-0.2,2.1l0,0c0.5,0.8,1.5,1.1,2.3,0.7c3.5-1.6,6.2-4.4,9.2-6.8c0.6-0.5,0.7-1.3,0.2-1.9
	C155.8,156.2,155.1,155.8,154.4,155.7z M193.7,93.6c-0.2,0-0.5,0.1-0.7,0.2c-3.5,1.7-6.3,4.3-9.1,6.8c-0.6,0.5-0.7,1.5-0.1,2.1l0,0
	c0.6,0.8,1.7,1.1,2.5,0.5c3.3-1.7,5.9-4.3,8.7-6.5c0.7-0.5,0.9-1.4,0.4-2.1C195,94,194.4,93.6,193.7,93.6L193.7,93.6z M154.7,100.5
	c-0.9,0-1.7,0.5-2,1.3c-0.4,0.9,0.1,1.5,0.6,2.1c1.6,1.7,3.3,3.4,5,5c1,0.9,2,1.7,3.1,2.4c0.9,0.6,1.7,0.2,2.3-0.5
	c0.6-0.6,0.7-1.5,0.1-2.2c-2.7-2.6-5-5.6-8.1-7.7C155.4,100.8,155.1,100.6,154.7,100.5L154.7,100.5z M210.5,93.9
	c-1.8,0-4.3-0.3-4.2,2.1c0,2.3,2.4,2,4.1,2h0.3c1.7,0,4.1,0.3,4.1-2C214.8,93.7,212.3,93.9,210.5,93.9z M212.4,154.7
	c-0.3-1-0.9-1.8-2-1.8c-1,0-1.8,0.8-1.8,1.7c0,0.1,0,0.1,0,0.2c0,1,0.8,1.8,1.8,1.8c0,0,0,0,0.1,0
	C211.5,156.5,212.3,155.7,212.4,154.7z M134,156.7c0.8-0.4,1.8-0.9,1.7-2c0-1-0.9-1.8-1.9-1.8l0,0c-0.9,0-1.7,0.7-1.8,1.7
	c0,0.1,0,0.1,0,0.2C132.1,155.9,132.9,156.4,134,156.7L134,156.7z M192,134.1c-0.4-0.8-0.9-1.6-2-1.5c-0.9,0-1.7,0.8-1.7,1.7
	c0,0.1,0,0.1,0,0.2c0,1,0.8,1.8,1.8,1.7h0.1C191.2,136.1,191.8,135.3,192,134.1L192,134.1z M194.6,80.6c-0.2-0.9-0.9-1.6-1.9-1.8
	c-1-0.1-1.9,0.6-2,1.6l0,0c-0.1,0.9,0.6,1.8,1.5,1.9c0.1,0,0.1,0,0.2,0C193.5,82.5,194.1,81.7,194.6,80.6L194.6,80.6z M222.3,119.1
	c0.1-1-0.7-1.9-1.7-2.1c-0.9-0.1-1.8,0.5-2,1.5c0,0.1,0,0.1,0,0.2c-0.2,0.9,0.4,1.8,1.4,2c0.1,0,0.1,0,0.2,0
	C221.4,120.9,221.9,120,222.3,119.1L222.3,119.1z M124,131c0.8-0.3,1.7-0.8,1.7-1.7s-0.7-1.7-1.7-1.7c-0.1,0-0.1,0-0.2,0
	c-0.9,0-1.6,0.8-1.6,1.7l0,0C122.3,130.3,123.1,130.7,124,131L124,131z M151.7,127.4c-0.8,0.4-1.8,0.7-1.7,1.9c0.1,1,1,1.7,2,1.6
	c0.8-0.1,1.5-0.8,1.6-1.6C153.6,128.3,152.7,127.8,151.7,127.4L151.7,127.4z M164.6,142.6c-0.9,0.3-1.7,0.8-1.7,1.8
	c0,0.9,0.7,1.7,1.7,1.7c0.1,0,0.2,0,0.3,0c0.9-0.1,1.5-0.8,1.5-1.7v-0.1C166.2,143.3,165.4,142.6,164.6,142.6L164.6,142.6z
	 M174.6,107.9c0.9-0.1,1.6-0.8,1.7-1.7c0.1-0.9-0.6-1.8-1.6-1.8s-1.8,0.6-1.8,1.6c0,0.1,0,0.2,0,0.3
	C173,107.2,173.7,107.9,174.6,107.9L174.6,107.9z M141.7,89.3c-0.9,0.1-1.6,0.7-1.8,1.6c-0.1,0.9,0.6,1.7,1.5,1.8
	c0.9,0.1,1.7-0.6,1.8-1.5c0,0,0,0,0-0.1C143.4,90.1,142.6,89.6,141.7,89.3z"/>
<path class="st1" d="M173.6,156.7c1.7-0.1,3.4,0.7,4.3,2.1c1.9,2.5,3.8,4.9,5.6,7.5c1.6,2.3,1.2,3.8-1.3,5c-2.6,1.3-5.7,0.7-7.6-1.4
	c-2.1-2.3-3.8-5-4.9-7.9C168.3,158.7,169.8,156.7,173.6,156.7z"/>
<path class="st1" d="M131.6,108.1c0.4,0.1,0.7,0.2,1,0.3c3.7,1.4,7.2,3.2,10.4,5.4c2.2,1.6,2.1,2.8,0.2,4.7
	c-2.8,2.7-5.9,3.1-9.2,1.1c-1.9-1.1-3.7-2.4-5.4-3.7c-1.3-1.1-3-2.4-2.1-4.4S129.5,108.7,131.6,108.1z"/>
<path class="st1" d="M170.8,134.9c-4.3,0-5.5-2.1-3.4-5.8c1.3-2.2,2.6-4.3,3.9-6.5c0.9-1.7,2.5-3,4.4-3.4c1.5-0.4,3,0,4.1,1.1
	s1.3,2.8,0.5,4.1c-1,2.2-1.9,4.5-3,6.6C175.7,134,174.1,134.9,170.8,134.9z"/>
<path class="st1" d="M201.8,131.2c0-3,1.9-4.7,4.5-4.1s5.2,1.3,7.8,2.2c3.1,1.2,4.9,4.3,4.4,7.6c-0.2,2-1.4,3.2-3.3,2.8
	c-4-0.8-7.8-2.3-11.3-4.5C202.5,134.2,201.7,132.7,201.8,131.2z"/>
<path class="st1" d="M172.8,93.4c-2.2,0.1-4.4-1-5.7-2.8c-1.5-2.1-2.9-4.3-4-6.7c-0.8-1.5-1.4-3.2,0.1-4.6c1.3-1.3,3.3-1.7,5.1-1.1
	c1.3,0.5,2.5,1.3,3.3,2.5c1.4,1.9,2.8,3.7,4.2,5.6c1,1.4,2.5,2.7,1.6,4.6C176.4,93.2,174.2,93,172.8,93.4z"/>
</svg>
